/* XPM */
static char *_f2373b7c6254bc18a6753615234cec5VeVQIiY3Sl0QF3wD[] = {
/* columns rows colors chars-per-pixel */
"64 64 187 2 ",
"   c #5C4C3D",
".  c #4A563D",
"X  c #475C3A",
"o  c #48583A",
"O  c #4B5C3C",
"+  c #56573C",
"@  c #5D533C",
"#  c #535B3C",
"$  c #62473D",
"%  c #654A3D",
"&  c #6C553C",
"*  c #63583D",
"=  c #6B593C",
"-  c #72563C",
";  c #78563C",
":  c #74593C",
">  c #7A5A3C",
",  c #476137",
"<  c #4A6437",
"1  c #4D6B36",
"2  c #4C633B",
"3  c #4E6939",
"4  c #516F37",
"5  c #52643C",
"6  c #59663F",
"7  c #516C3A",
"8  c #537236",
"9  c #567B32",
"0  c #5A7D35",
"q  c #537239",
"w  c #5E7F3B",
"e  c #68653A",
"r  c #5C4C41",
"t  c #4A5740",
"y  c #4C5C46",
"u  c #4C5E48",
"i  c #535341",
"p  c #535D42",
"a  c #545D4B",
"s  c #5A5C48",
"d  c #634C42",
"f  c #6A4B42",
"g  c #744D43",
"h  c #635345",
"j  c #6C5143",
"k  c #6B5748",
"l  c #675C4A",
"z  c #765143",
"x  c #765A45",
"c  c #765B4D",
"v  c #7C5C4D",
"b  c #765C50",
"n  c #7B5D51",
"m  c #4F664B",
"M  c #546543",
"N  c #52654C",
"B  c #54694D",
"V  c #5B7746",
"C  c #5E734D",
"Z  c #536652",
"A  c #5B6552",
"S  c #536B52",
"D  c #5B6952",
"F  c #5C6F59",
"G  c #567253",
"H  c #5A7455",
"J  c #5D7A55",
"K  c #646347",
"L  c #716E41",
"P  c #677843",
"I  c #626653",
"U  c #7D6152",
"Y  c #7A6552",
"T  c #617B55",
"R  c #68735C",
"E  c #815F53",
"W  c #86614C",
"Q  c #846355",
"!  c #8A6656",
"~  c #876559",
"^  c #896659",
"/  c #8D695C",
"(  c #926C5C",
")  c #986E5C",
"_  c #9B725E",
"`  c #A3755F",
"'  c #936E61",
"]  c #967061",
"[  c #9B7362",
"{  c #A57661",
"}  c #A67A64",
"|  c #AB7B64",
" . c #B37E65",
".. c #5D8236",
"X. c #5F813F",
"o. c #62853C",
"O. c #658A3A",
"+. c #698D3F",
"@. c #5A8B4B",
"#. c #538D53",
"$. c #648443",
"%. c #668B44",
"&. c #6A8C44",
"*. c #718D46",
"=. c #7A8E44",
"-. c #6E9144",
";. c #649C46",
":. c #6E9249",
">. c #729344",
",. c #7A9344",
"<. c #769A44",
"1. c #7B9C45",
"2. c #759549",
"3. c #7B9D49",
"4. c #769953",
"5. c #7EA145",
"6. c #77A14E",
"7. c #78A14E",
"8. c #77A150",
"9. c #7AA152",
"0. c #8AA83F",
"q. c #94AE3C",
"w. c #99B937",
"e. c #96B23B",
"r. c #99B53D",
"t. c #97B83B",
"y. c #9DBA3B",
"u. c #A0BF39",
"i. c #819D44",
"p. c #83A444",
"a. c #8AA445",
"s. c #85A943",
"d. c #8DAC44",
"f. c #82A249",
"g. c #8BA648",
"h. c #8DAB49",
"j. c #92AD43",
"k. c #90AD4A",
"l. c #8EB144",
"z. c #93B543",
"x. c #9AB542",
"c. c #96B942",
"v. c #9BBA45",
"b. c #93B148",
"n. c #99B64B",
"m. c #96BB49",
"M. c #9CBC4A",
"N. c #8CA753",
"B. c #93AF51",
"V. c #9AB358",
"C. c #A0BB44",
"Z. c #A0B25A",
"A. c #B58167",
"S. c #B68168",
"D. c #BB836A",
"F. c #A2C144",
"G. c #A3C34B",
"H. c #A7C84E",
"J. c #A9CA4F",
"K. c #A5C355",
"L. c #A7C851",
"P. c #A9CA51",
"I. c #ACCD53",
"U. c #A7C459",
"Y. c #A9C65A",
"T. c #ADC95D",
"R. c #AEC960",
"E. c #6FA683",
"W. c #71A684",
"Q. c #72AA86",
"!. c #73AA86",
"~. c #74AD89",
"^. c #76B28D",
"/. c #76B38D",
"(. c #77B48E",
"). c #78B58F",
"_. c #7BBA8D",
"`. c #77B590",
"'. c #78B691",
"]. c #7BBE95",
"[. c #7CBF97",
"{. c #7DBF98",
"}. c #7BC095",
"|. c #7CC097",
" X c #7EC099",
".X c #7FC299",
"XX c #7FC29A",
/* pixels */
" X X X X X X X X X X X X X X X X X X X X X X X X X X X X X X X X X X X X X X X X X X X X X X X X X X X X X X X X X X X X X X X X",
" X X X X X X X X X X X X X X X X X X X X X X X X X X X X X X X X X X X X X X X X X X X X X X X X X X X X X X X X X X X X X X X X",
" X X X X X X X X X X X X X X X X X X X X X X X X X X X X X X X X X X X X X X X X X X X X X X X X X X X X X X X X X X X X X X X X",
" X X X X X X X X X X X X X X X X X X X X X X X X X X X X X X X X X X X X X X X X X X X X X X X X X X X X X X X X X X X X X X X X",
" X X X X X X X X X X X X[.|.|.|. X X X X X X X X X X X X X X X X X X X X X X X X X X X X X X X X X X X X X X X X X X X X X X X X",
" X X X X X X X X X X X].].].].].]. X X X X X X X X X X X X X X X X X X X X X X X X X X X X X X X X X X X X X X X X X X X X X X X",
" X X X X X X X X X X].].].].].].}.|. X X X X X X X X X X X X X X X X X X X X X X X X X X X X X X X X X X X X X X X X X X X X X X",
" X X X X X X X X X[.].].].].].].].}.}.}.[.].].|. X X X X X X X X X X X X X X X X X X X X X X X X X X X X X X X X X X X X X X X X",
" X X X X X X X X|.].].].].].].].].].].].].].].].}.}. X X X'.(.(./.(.`.{. X X X X X X X X X X X X X X X X X X X X X X X X X X X X",
"}.}.|. X|.|.[.|.].].].].].].].].].].].].].].].].}.|.|.|.~.H B B B B H Q.`.{. X X X X X X X X X X X X X X X X X X X X X X X X X X",
"].|.|.[.].].].].].].].].].].].].].].].].}.|.|.|.|.|.|.~.T a.j.j.j.j.a.C G Q. X X X X X X X X X X X X X X X X X X X X X X X X X X",
"].|. X|.].].].].].].].].].].].].].|.|.]./.(./.(././.Q.J h.P.P.P.v.v.v.j.i.J Q. X X X X X X X X X X X X X X X X X X X X X X X X X",
"[.].[.[.].].].].].].].].].].].].[.|.|.~.H N N B N N C 1.P.I.G.J.v.v.n.n.G.,.S Q././././.(.`.{. X X X X X X X X X X X X X X X X X",
"].].}.}.].].].].].].].].].].].|.|.[.~.J i.d.d.d.d.j.n.M.P.G.v.v.v.v.v.M.P.d.M B B B B B B H Q. X X X X X X X X X X X|.|.|.|.[.].",
"].].].}.].].].|.].].].].].].|. X[.~.J h.L.P.M.v.v.v.F.P.G.v.v.n.v.v.v.v.L.n.b.b.j.j.j.d.d.a.T Q. X X X X X X X X|.}.|. X|.].].].",
"].].].].].].].].].].].].]. X X X~.T k.P.G.v.v.v.v.v.v.J.M.v.v.h.b.c.v.v.v.v.J.I.I.I.P.v.v.v.a.T ~. X X X|.|.|.|.}.}.}.|.].].].].",
"}.}.].].}.}.}.|.|.[.].].|.|.|.~.T V.I.G.v.n.v.v.v.v.v.v.v.c.c.b.l.b.v.v.v.v.H.G.P.G.M.v.v.v.v.a.T Q.[.].].].].].].].].].].].].].",
"}.}.|.|. X X X X X X X X X|.~.T a.M.v.v.v.n.n.v.v.v.v.v.p.<.<.<.;.5.c.v.v.v.v.v.M.v.n.v.v.v.v.c.i.H (.}.].}.|.|.].].[.].].].].].",
"|. X X X X X X X X X X X X'.H g.G.v.c.M.v.h.d.c.v.c.c.c.1.-.-.-.:.3.b.v.v.z.z.c.v.v.v.v.v.v.c.z.p.M E.}.].].|.].].].].].].].].].",
" X X X X X X X X X X X X'.Q.C n.n.c.c.c.c.5.5.z.z.5.5.5.>.-.-.-.>.<.3.g.z.c.z.c.c.c.v.v.v.v.b.5.>.M G Q.].].].].].].].|.].].].].",
" X X X X X X X X X X X~.H C B.v.n.c.z.z.z.d.l.s.s.<.>.>.>.>.-.-.>.>.3.p.l.z.z.z.z.z.c.c.v.c.b.d.b.d.g.T Q.].|.].].].].|.}.}.}.].",
" X X X X X X X X X X~.T a.n.M.v.v.z.z.z.z.z.e.s.<.>.>.-.-.-.&.&.&.&.>.2.5.d.z.z.z.l.g.g.l.d.l.b.c.v.L.B.G (.|.].].].].|.|.}.}.}.",
" X X X X X X X X X'.H f.H.v.v.v.v.c.z.z.z.e.z.c.2.>.>.-.-.-.&.&.&.&.-.-.-.<.l.d.s.s.5.5.:.<.3.3.1.1.f.3.B Q.[.|.].].].].}.|.}.}.",
" X X X X X X X X X/.B k.J.v.c.v.v.c.c.c.z.z.v.m.<.>.2.>.-.&.&.&.&.&.&.-.&.-.<.s.>.:.:.:.#.#.%.&.&.&.2.1.*.G (. X|. X X X X X|.|.",
" X X X X X X X X X/.B h.H.G.v.v.v.c.t.c.l.z.c.1.>.>.<.2.-.-.-.&.&.&.&.&.&.&.-.1.-.-.-.@.#.#.%.&.%.%.>.2.&.N (. X X X X X X X X X",
" X X X X X X X X X`.B a.v.H.F.v.v.c.c.z.0.s.<.-.-.>.2.2.>.-.-.-.&.&.&.&.&.&.&.&.&.-.-.%.%.@.%.&.%.&.>.2.&.N (. X X X X X X X X X",
" X X X X X X X X X/.N 2.b.v.v.v.c.c.l.s.1.>.&.&.>.2.2.2.2.>.>.>.-.>.>.>.*.*.&.&.&.-.>.>.-.%.&.&.&.&.-.>.&.N (. X X X X X X X X X",
" X X X X X X X X X/.B 2.3.d.b.l.g.p.<.>.-.&.&.-.2.2.2.2.2.2.2.>.>.>.>.>.>.*.-.-.>.2.2.2.>.-.&.&.&.&.-.>.&.N (. X X X X X X X X X",
" X X X X X X X X X).B 2.2.<.1.1.f.2.>.>.>.&.-.-.2.>.>.>.>.>.>.2.2.>.>.>.>.>.-.<.1.<.2.2.>.-.&.&.&.&.-.>.&.N (. X X X X X X X X X",
" X X X X X X X X X).B >.2.>.>.>.>.>.>.>.>.>.-.-.>.+.........&.&.>.-.&.-.-.&.%.O.-.>.2.2.>.&.&.&.&.&.&.&.o.N (. X X X X X X X X X",
" X X X X X X X X X'.N &.>.:.:.>.>.>.-.-.&.&.&.&.O.0 q q 8 q q q P $.X.....$.0 0 &.-.2.2.-.&.&.&.%.%.%.&.o.N (. X X X X X X X X X",
" X X X X X X X X X'.S V O.&.-.-.-.&.&.+...0 9 9 7 @ 7 q q q 4 3 O O O O # 7 O @ M &.>.2.>.&.&.&.&.&.&.&.w B (. X X X X X X X X X",
" X X X X X X X X X X~.G w %.-.-.&.&.O.w O O < 1 5 @ 6 4 4 4 7 2 X X .   f #   % p &.>.>.>.&.&.&.&.&.&.$.G Q.{. X X X X X X X X X",
" X X X X X X X X X X XQ.N V $.$.$.$.0 2 . . 2 3 p h l 7 4 4 7 2 , , X   g z z j 5 $.&.&.&.&.&.&.&.&.%.$.Q. X X X X X X X X X X X",
" X X X X X X X X X X X'.S t t O q 8 3 3 2 O X 2 3 5 5 4 4 7 h O < , o   g x - # X # # 7 1 8 0 ..o.o.w G /. X X X X X X X X X X X",
" X X X X X X X X X X X XQ.Z . < 4 4 4 1 7 2 . r # 3 4 q 4 7 h d 2 < @ : > > + X o r d 2 < < 1 4 3 3 m W.{. X X X X X X X X X X X",
" X X X X X X X X X X X X XQ.S 2 2 2 2 2 2 5 r f - + 5 3 7 6 k j # 5 Q ! W > # o   d d # 2 O X 2 2 X m /. X X X X X X X X X X X X",
" X X X X X X X X X X X X X XQ.S u u u u u i r % ; : = + 5 Y / / U k [ [ / U K @ $ $   i i i t u u B Q. X X X X X X X X X X X X X",
" X X X X X X X X X X X X X X X(.(.(./.(.W.Z y a x : ; : s Q ' ] [ ( } [ ^ Q & & %   p u u u N E.(.(. X X X X X X X X X X X X X X",
" X X X X X X X X X X X X X X X X X X X X X(./.(.Q.D = x Q ^ / ( ] [ [ ] ~ Q U v & N W.(././.(. X X X X X X X X X X X X X X X X X",
" X X X X X X X X X X X X X X X X X X X X X X X X XQ.D x Q / ' ' [ [ ) / ~ Q Q c A W. X X X X X X X X X X X X X X X X X X X X X X",
" X X X X X X X X X X X X X X X X X X X X X X X X X XQ.D b ~ / ' [ ' / ~ Q U b A W.{. X X X X X X X X X X X X X X X X X X X X X X",
" X X X X X X X X X X X X X X X X X X X X X X X X X X XQ.l Q / / ' / ~ Q U a Z Q. X X X X X X X X X X X X X X X X X X X X X X X X",
" X X X X X X X X X X X X X X X X X X X X X X X X X X X).A ( [ / / ~ Q n D E./. X X X X X X X X X X X X X X X X X X X X X X X X X",
" X X X X X X X X X X X X X X X X X X X X X X X X X X X/.A [ { ( / Q b D Q. X X X X X X X X X X X X X X X X X X X X X X X X X X X",
" X X X X X X X X X X X X X X X X X X X X X X X X X X X/.A | { ( / n a W. X X X X X X X X X X X X X X X X X X X X X X X X X X X X",
" X X X X X X X X X X X X X X X X X X X X X X X X X X X~.I | { ( Q b a (. X X X X X X X X X X X X X X X X X X X X X X X X X X X X",
" X X X X X X X X X X X X|.|.|.|. X X X X X X X X X X'.F [ D.{ ( Q b a (. X X X X X X X X X X X|.|. X|. X X X X X X X X X X X X X",
" X X X X X X X X X X X|.[.[.[.[.[.|. X X X X X X X XQ.I } D.{ ( E b a (. X X X X X X X X X X|.[.[.{.[.|. X X X X X X X X X X X X",
" X X X X X X X X X X|.[.[.[.[.[.[.[.|. X X X X X X`.F } A.D.{ ( Q b a Q. X X X X X X X X X|.[.[.[.[.].]. X X X X X X X X X X X X",
" X X X X X X X X X|.|.[.[.[.[.[.[.[. X X X X X X X~.I | D.| ` ( ^ Q k D Q. X X X X X X X X|.[.[.[.[.].].|. X X X X X X X X X X X",
" X X X X X X X X X|.|.|. X X X X X X X X X X X X~.R |  .| { ` _ ( ^ E k D /. X X X X X X X|.|.|.[.[.].].|.|. X X X X X X X X X X",
"_._._.]._._._._._._._._._._._._._._._._._._.'.~.R } A.D.| ` ` ` ) ! n c l W.'.'._._._._._._._._._._._._._._._._._._._._._._._._.",
"9.9.9.9.9.9.9.9.9.7.6.7.7.7.7.7.9.7.6.6.7.9.4.D [ S. .| { ` ` ` ^ Q Q b c a B 4.9.9.9.7.7.7.7.7.6.6.6.7.8.6.7.9.9.9.9.9.9.9.9.9.",
"T.T.R.R.T.R.T.T.U.U.U.U.U.U.U.U.U.U.U.K.K.T.V.K ) ` { | { ` ` _ ~ Q Q Q n j = Z.T.T.T.Y.Y.U.U.K.U.U.U.U.Y.U.U.U.T.T.T.T.T.T.T.T.",
"C.C.v.v.v.v.v.C.v.x.x.x.x.x.r.x.x.x.x.x.x.x.L Y Q Q Q ! ! Q Q Q Q Q E n v v c L x.F.F.y.y.y.v.x.x.x.x.x.v.v.x.v.C.v.v.v.C.C.C.v.",
"r.r.r.r.r.r.r.r.r.e.q.q.q.q.q.q.q.q.N.N.z.e.e * = = = = = = = = = = = = = = = e q.y.y.w.w.r.r.e.e.e.e.e.e.e.q.e.r.r.r.x.y.r.r.r.",
"r.x.r.r.x.r.r.r.r.e.e.q.e.q.q.q.e.e.j.d.w.y.g.,.=.=.=.=.=.=.=.=.=.=.=.=.=.=.,.a.x.y.y.r.e.r.e.e.e.e.e.e.e.e.e.e.x.r.x.n.y.r.r.y.",
"r.r.x.x.x.r.r.r.r.r.e.e.e.e.e.e.r.w.r.w.y.y.y.w.w.r.r.w.r.r.r.r.x.x.r.r.r.r.r.y.y.v.y.w.e.e.e.e.e.e.e.e.e.q.e.r.n.x.x.y.y.y.y.y.",
"r.r.r.x.j.e.r.r.r.r.r.e.e.e.e.e.r.r.r.y.y.u.u.u.u.u.u.u.u.u.y.y.x.y.y.u.u.y.y.y.x.x.y.y.e.e.e.e.e.e.r.e.q.q.r.y.x.x.x.x.y.y.y.y.",
"r.r.r.r.r.r.r.r.y.y.y.y.y.y.y.y.y.y.y.y.C.y.y.y.u.u.u.u.u.u.u.y.y.y.y.y.y.y.y.y.y.y.y.u.y.y.w.w.w.w.w.y.y.r.r.x.y.y.y.y.y.y.y.y.",
"q.q.q.q.q.q.q.j.r.r.r.r.r.r.r.w.y.y.y.r.x.r.x.r.w.w.w.w.w.w.w.w.w.r.x.x.r.w.y.y.y.w.w.w.w.w.r.r.w.r.w.w.w.r.e.e.r.r.r.r.r.r.r.r.",
">.>.>.>.>.>.>.>.>.>.>.>.+.+.>.<.e.r.e.<.>.>.>.>.>.>.>.>.>.>.>.>.>.>.>.>.>.<.e.e.j.<.>.>.>.>.>.>.+.>.>.>.>.>.>.>.>.>.>.>.>.+.+.+.",
"&.&.&.&.&.&.&.&.&.&.&.&.&.&.&.&.<.0.<.&.&.&.&.&.&.&.&.&.%.&.&.&.&.&.&.&.&.&.<.0.>.&.&.&.&.&.&.&.&.&.&.&.&.&.&.&.&.&.&.&.&.&.&.&."
};
