/* XPM */
static char *_c32d4554def4171d52e26ad3ffb719dhi1diDOoh7kRnsxz[] = {
/* columns rows colors chars-per-pixel */
"64 64 201 2 ",
"   c #783E39",
".  c #315F3B",
"X  c #2A623C",
"o  c #3A683B",
"O  c #39793A",
"+  c #5C4C3D",
"@  c #4A563D",
"#  c #475C3A",
"$  c #48583A",
"%  c #4B5C3C",
"&  c #56573C",
"*  c #5D533C",
"=  c #535B3C",
"-  c #64493D",
";  c #6C553C",
":  c #63583D",
">  c #6B593C",
",  c #74573C",
"<  c #7A5A3C",
"1  c #4A6437",
"2  c #4A6636",
"3  c #4C633B",
"4  c #4E6939",
"5  c #52643C",
"6  c #536C39",
"7  c #516C3A",
"8  c #5A7D35",
"9  c #537239",
"0  c #5E7F3B",
"q  c #68653A",
"w  c #6F7F3F",
"e  c #7D743D",
"r  c #79793F",
"t  c #3F7841",
"y  c #5C4C41",
"u  c #4A5740",
"i  c #4C5C46",
"p  c #4C5E48",
"a  c #535341",
"s  c #535D42",
"d  c #545D4B",
"f  c #634C42",
"g  c #6A4B42",
"h  c #744D43",
"j  c #695546",
"k  c #775948",
"l  c #765C50",
"z  c #7B5D51",
"x  c #4F664B",
"c  c #576747",
"v  c #52654C",
"b  c #54694D",
"n  c #467F41",
"m  c #5D754A",
"M  c #5B6552",
"N  c #536B52",
"B  c #576A55",
"V  c #5B6952",
"C  c #567253",
"Z  c #5A7455",
"A  c #5D7A55",
"S  c #646347",
"D  c #677843",
"F  c #787341",
"G  c #626653",
"H  c #7D6152",
"J  c #7A6552",
"K  c #617B55",
"L  c #68735C",
"P  c #8B3637",
"I  c #993D35",
"U  c #A43535",
"Y  c #AA3734",
"T  c #BC3134",
"R  c #C63C34",
"E  c #89493B",
"W  c #934C3C",
"Q  c #A1463D",
"!  c #B25A33",
"~  c #C54A3A",
"^  c #CC573F",
"/  c #9D3C4B",
"(  c #A63F4E",
")  c #815F53",
"_  c #A34A51",
"`  c #857046",
"'  c #846355",
"]  c #8A6656",
"[  c #876559",
"{  c #896659",
"}  c #8D695C",
"|  c #926C5C",
" . c #986E5C",
".. c #9B725E",
"X. c #A3755F",
"o. c #936E61",
"O. c #967061",
"+. c #9B7362",
"@. c #A57661",
"#. c #A67A64",
"$. c #AB7B64",
"%. c #B37E65",
"&. c #C27668",
"*. c #438235",
"=. c #5D8236",
"-. c #5F813F",
";. c #62853C",
":. c #678C3D",
">. c #79873F",
",. c #719D3F",
"<. c #71A13D",
"1. c #648443",
"2. c #668942",
"3. c #6A8C43",
"4. c #778342",
"5. c #728D43",
"6. c #7A8E44",
"7. c #6E9144",
"8. c #6C9545",
"9. c #729344",
"0. c #769944",
"q. c #7B9D45",
"w. c #759548",
"e. c #7B9949",
"r. c #769953",
"t. c #7EA243",
"y. c #7DA943",
"u. c #77A14E",
"i. c #78A14E",
"p. c #77A150",
"a. c #7AA152",
"s. c #848C3F",
"d. c #8AA63F",
"f. c #94AE3C",
"g. c #98B837",
"h. c #96B23B",
"j. c #99B53D",
"k. c #9DBA3B",
"l. c #A0BF39",
"z. c #828E43",
"x. c #829E44",
"c. c #8E9D42",
"v. c #929D40",
"b. c #BF8C47",
"n. c #AA8354",
"m. c #82A444",
"M. c #8AA445",
"N. c #85AA44",
"B. c #8CAD44",
"V. c #86A448",
"C. c #8DAC49",
"Z. c #92AD43",
"A. c #91AB47",
"S. c #8EB143",
"D. c #94B544",
"F. c #9AB542",
"G. c #96B844",
"H. c #9BBA45",
"J. c #93B148",
"K. c #99B64B",
"L. c #9CBC4A",
"P. c #8CA753",
"I. c #93AF51",
"U. c #9AB358",
"Y. c #A0BB44",
"T. c #A0B25A",
"R. c #B58167",
"E. c #BB836A",
"W. c #C1905D",
"Q. c #C4A350",
"!. c #A2C144",
"~. c #A3C34B",
"^. c #A7C84E",
"/. c #A9CA4F",
"(. c #A5C355",
"). c #A7C851",
"_. c #A9CA51",
"`. c #ACCD53",
"'. c #A7C459",
"]. c #A9C65A",
"[. c #ADC95D",
"{. c #AEC960",
"}. c #6FA683",
"|. c #71A684",
" X c #72AA86",
".X c #73AA86",
"XX c #74AD89",
"oX c #76B28D",
"OX c #76B38D",
"+X c #78B58F",
"@X c #7BBA8D",
"#X c #77B590",
"$X c #78B691",
"%X c #7BBE95",
"&X c #7CBF97",
"*X c #7DBF98",
"=X c #7BC095",
"-X c #7CC097",
";X c #7EC099",
":X c #7FC299",
">X c #7FC29A",
/* pixels */
";X;X;X;X;X;X;X;X;X;X;X;X;X;X;X;X;X;X;X;X;X;X;X;X;X;X;X;X;X;X;X;X;X;X;X;X;X;X;X;X;X;X;X;X;X;X;X;X;X;X;X;X;X;X;X;X;X;X;X;X;X;X;X;X",
";X;X;X;X;X;X;X;X;X;X;X;X;X;X;X;X;X;X;X;X;X;X;X;X;X;X;X;X;X;X;X;X;X;X;X;X;X;X;X;X;X;X;X;X;X;X;X;X;X;X;X;X;X;X;X;X;X;X;X;X;X;X;X;X",
";X;X;X;X;X;X;X;X;X;X;X;X;X;X;X;X;X;X;X;X;X;X;X;X;X;X;X;X;X;X;X;X;X;X;X;X;X;X;X;X;X;X;X;X;X;X;X;X;X;X;X;X;X;X;X;X;X;X;X;X;X;X;X;X",
";X;X;X;X;X;X;X;X;X;X;X;X;X;X;X;X;X;X;X;X;X;X;X;X;X;X;X;X;X;X;X;X;X;X;X;X;X;X;X;X;X;X;X;X;X;X;X;X;X;X;X;X;X;X;X;X;X;X;X;X;X;X;X;X",
";X;X;X;X;X;X;X;X;X;X;X;X&X&X-X-X;X;X;X;X;X;X;X;X;X;X;X;X;X;X;X;X;X;X;X;X;X;X;X;X;X;X;X;X;X;X;X;X;X;X;X;X;X;X;X;X;X;X;X;X;X;X;X;X",
";X;X;X;X;X;X;X;X;X;X;X%X%X%X%X%X%X;X;X;X;X;X;X;X;X;X;X;X;X;X;X;X;X;X;X;X;X;X;X;X;X;X;X;X;X;X;X;X;X;X;X;X;X;X;X;X;X;X;X;X;X;X;X;X",
";X;X;X;X;X;X;X;X;X;X%X%X%X%X%X%X=X-X;X;X;X;X;X;X;X;X;X;X;X;X;X;X;X;X;X;X;X;X;X;X;X;X;X;X;X;X;X;X;X;X;X;X;X;X;X;X;X;X;X;X;X;X;X;X",
";X;X;X;X;X;X;X;X;X&X%X%X%X%X%X%X%X=X=X=X&X%X%X-X;X;X;X;X;X;X;X;X;X;X;X;X;X;X;X;X;X;X;X;X;X;X;X;X;X;X;X;X;X;X;X;X;X;X;X;X;X;X;X;X",
";X;X;X;X;X;X;X;X-X%X%X%X%X%X%X%X%X%X%X%X%X%X%X%X=X=X;X;X;X$XOXOXOXOX#X*X;X;X;X;X;X;X;X;X;X;X;X;X;X;X;X;X;X;X;X;X;X;X;X;X;X;X;X;X",
"=X=X-X;X-X-X-X-X%X%X%X%X%X%X%X%X%X%X%X%X%X%X%X%X=X-X-X-XXXZ b b b b Z  X#X*X;X;X;X;X;X;X;X;X;X;X;X;X;X;X;X;X;X;X;X;X;X;X;X;X;X;X",
"%X-X-X&X%X%X%X%X%X%X%X%X%X%X%X%X%X%X%X%X=X-X-X-X-X-X-XXXK M.Z.Z.Z.Z.M.m C  X;X;X;X;X;X;X;X;X;X;X;X;X;X;X;X;X;X;X;X;X;X;X;X;X;X;X",
"%X-X;X-X%X%X%X%X%X%X%X%X%X%X%X%X%X-X-X%XOXOXOXOXOXOX XA C._._._.H.H.H.Z.x.A  X;X;X;X;X;X;X;X;X;X;X;X;X;X;X;X;X;X;X;X;X;X;X;X;X;X",
"&X%X&X&X%X%X%X%X%X%X%X%X%X%X%X%X&X-X-XXXZ b b b b b m q._.`.~./.H.H.K.K.~.0.N  XOXOXOXOXOX#X*X;X;X;X;X;X;X;X;X;X;X;X;X;X;X;X;X;X",
"%X%X=X=X%X%X%X%X%X%X%X%X%X%X%X&X-X&XXXA x.B.B.B.B.Z.K.L._.~.H.H.H.H.H.L._.B.c b b b b b b Z  X;X;X;X;X;X;X;X;X;X;X;X-X-X-X-X&X%X",
"%X%X%X=X%X%X%X-X%X%X%X%X%X%X-X;X&XXXA C.)._.L.H.H.H.!._.~.H.H.K.H.H.H.H.^.K.J.J.Z.Z.Z.B.B.M.K  X;X;X;X;X;X;X;X;X-X=X-X;X-X%X%X%X",
"%X%X%X%X%X%X%X%X%X%X%X%X%X;X;X;XXXK C._.~.H.H.H.H.H.H./.L.H.D.N.J.D.H.H.H.H./.`.`.`._.H.H.H.M.A XX;X;X;X-X-X-X-X=X=X=X-X%X%X%X%X",
"=X=X%X%X=X=X=X-X-X&X%X%X-X-X-XXXK U.`.~.H.K.H.H.H.H.H.H.G.J.B.y.m.B.D.H.H.H.^.~._.~.L.H.H.H.H.M.K  X&X%X%X%X%X%X%X%X%X%X%X%X%X%X",
"=X=X-X-X;X;X;X;X;X;X;X;X;X-XXXK M.L.H.H.H.K.K.H.H.H.H.D.J.N.y.O 8.t.N.D.H.H.H.H.L.H.K.H.H.H.H.D.x.Z OX=X%X=X-X-X%X%X&X%X%X%X%X%X",
"-X;X;X;X;X;X;X;X;X;X;X;X;X$XZ M.~.H.G.L.H.C.B.G.H.D.D.D.D.x.n X t 5.m.J.H.D.D.G.H.H.H.H.H.H.H.D.m.c }.=X%X%X-X%X%X%X%X%X%X%X%X%X",
";X;X;X;X;X;X;X;X;X;X;X;X$X Xm K.K.D.D.G.D.t.t.D.D.t.m.B.c.Q n.Q n.Q z.m.D.G.D.G.G.G.H.H.H.H.J.t.9.c C  X%X%X%X%X%X%X%X-X%X%X%X%X",
";X;X;X;X;X;X;X;X;X;X;XXXZ m I.H.K.D.D.D.N.m.C.N.N.0.0.q.z.U ~ T ~ U 6.t.S.D.D.D.D.D.D.D.H.D.J.B.J.B.M.K  X%X-X%X%X%X%X-X=X=X=X%X",
";X;X;X;X;X;X;X;X;X;XXXK V.K.L.H.H.D.D.N.*.<.0.0.0.9.9.9.9.r U T U F 9.9.t.B.D.D.D.S.N.N.C.B.S.J.D.H.).I.C OX-X%X%X%X%X-X-X=X=X=X",
";X;X;X;X;X;X;X;X;X$XZ V.^.H.H.H.H.D.D.d.*.O 3.9.9.9.w.9.7.9.r I e 9.7.7.7.0.S.B.N.m.t.t.0.t.B.B.t.q.m.q.b  X&X-X%X%X%X%X=X-X=X=X",
";X;X;X;X;X;X;X;X;XOXb A./.H.G.H.H.D.v.W $   r 9.9.9.0.9.7.7.9.4.9.7.7.7.3.7.0.N.9.7.7.0.,.O 8.,.0.0.0.q.5.C OX;X-X;X;X;X;X;X-X-X",
";X;X;X;X;X;X;X;X;XOXb C.^.~.H.H.H.Z.E &._ /   6.9.9.0.0.9.7.3.7.9.3.3.3.3.3.7.q.7.7.7.9.:.. o o 7.0.0.0.3.v OX;X;X;X;X;X;X;X;X;X",
";X;X;X;X;X;X;X;X;X#Xb M.H.^.!.H.H.Z.E _ ( /   6.0.0.w.w.9.7.7.3.7.3.3.3.3.3.3.3.3.7.7.9.r W ! ! ` 9.9.0.3.v OX;X;X;X;X;X;X;X;X;X",
";X;X;X;X;X;X;X;X;XOXv w.J.H.H.H.D.S.s.P P P >.0.0.0.w.w.0.9.9.9.7.9.9.9.5.5.3.3.3.7.9.4.Q W.Q.b.Y 4.7.9.3.v OX;X;X;X;X;X;X;X;X;X",
";X;X;X;X;X;X;X;X;XOXb w.q.B.J.S.N.m.q.>.>.6.0.0.0.0.w.w.0.0.0.9.9.9.9.9.9.5.7.7.9.0.0.4.U ^ ^ ~ U 4.7.9.3.v OX;X;X;X;X;X;X;X;X;X",
";X;X;X;X;X;X;X;X;X+Xb w.w.e.q.t.m.0.9.9.0.9.9.9.0.9.9.9.9.9.9.0.0.9.9.9.9.9.7.0.q.0.w.w.e Y R Y e 7.9.9.3.v OX;X;X;X;X;X;X;X;X;X",
";X;X;X;X;X;X;X;X;X+Xb 9.w.w.w.9.9.9.9.9.9.9.7.7.9.:.=.=.=.=.2.3.9.7.3.7.7.3.2.;.7.9.w.w.9.e I e 7.7.3.3.;.v OX;X;X;X;X;X;X;X;X;X",
";X;X;X;X;X;X;X;X;X$Xv 3.9.7.7.9.w.9.3.3.3.3.3.3.;.8 9 9 9 9 9 9 D 1.-.=.=.1.8 8 2.7.0.0.7.3.w 3.3.3.2.2.;.v OX;X;X;X;X;X;X;X;X;X",
";X;X;X;X;X;X;X;X;X$XN m :.3.7.7.7.3.3.:.=.8 8 8 7 * 7 9 9 7 7 4 % % % % = 7 % * c 3.9.0.9.3.3.3.3.3.3.2.0 b OX;X;X;X;X;X;X;X;X;X",
";X;X;X;X;X;X;X;X;X;XXXC 0 2.7.7.3.3.;.0 % % 1 4 5 * 5 7 7 7 7 1 $ # $ + g = + - s 3.9.9.9.3.3.3.3.3.3.2.C  X*X;X;X;X;X;X;X;X;X;X",
";X;X;X;X;X;X;X;X;X;X;X Xb m 1.1.1.1.8 3 @ @ 3 4 s j j 7 7 7 7 3 1 1 # + h h h h 5 1.3.3.3.2.3.3.3.3.2.1. X;X;X;X;X;X;X;X;X;X;X;X",
";X;X;X;X;X;X;X;X;X;X;X$XN u u % 9 9 4 4 3 % # 3 4 5 5 7 7 7 j = 1 1 $ + h k , = $ = = 4 4 9 8 =.;.;.0 C OX;X;X;X;X;X;X;X;X;X;X;X",
";X;X;X;X;X;X;X;X;X;X;X;X Xv @ 1 9 9 7 4 7 3 @ y = 4 7 9 7 7 j f 3 1 * , < < & $ % y f 3 1 1 4 7 4 4 x |.*X;X;X;X;X;X;X;X;X;X;X;X",
";X;X;X;X;X;X;X;X;X;X;X;X;X XN 3 3 3 3 3 3 5 y g , & 5 4 7 5 j j = 5 ' ] ) < = % + f f = 3 % # 3 3 # x OX;X;X;X;X;X;X;X;X;X;X;X;X",
";X;X;X;X;X;X;X;X;X;X;X;X;X;X XN p p p p p a y - < , > & 5 J } } H j +.+.} H S * - - + a a a u p p b  X;X;X;X;X;X;X;X;X;X;X;X;X;X",
";X;X;X;X;X;X;X;X;X;X;X;X;X;X;XOXOXOXOXOX|.v i d k , < , * ' o.O.+.| #.+.{ ' ; ; - + s p p p v }.OXOX;X;X;X;X;X;X;X;X;X;X;X;X;X;X",
";X;X;X;X;X;X;X;X;X;X;X;X;X;X;X;X;X;X;X;X;XOXOXOX XV > k ' { } | O.+.+.O.[ ' H z ; v |.OXOXOXOX;X;X;X;X;X;X;X;X;X;X;X;X;X;X;X;X;X",
";X;X;X;X;X;X;X;X;X;X;X;X;X;X;X;X;X;X;X;X;X;X;X;X;X XV k ' } o.o.+.+. .} [ ' ' l M |.;X;X;X;X;X;X;X;X;X;X;X;X;X;X;X;X;X;X;X;X;X;X",
";X;X;X;X;X;X;X;X;X;X;X;X;X;X;X;X;X;X;X;X;X;X;X;X;X;X XV l [ } o.+.o.} [ ' H l M |.*X;X;X;X;X;X;X;X;X;X;X;X;X;X;X;X;X;X;X;X;X;X;X",
";X;X;X;X;X;X;X;X;X;X;X;X;X;X;X;X;X;X;X;X;X;X;X;X;X;X;X Xj ' } } o.} [ ' H d B  X;X;X;X;X;X;X;X;X;X;X;X;X;X;X;X;X;X;X;X;X;X;X;X;X",
";X;X;X;X;X;X;X;X;X;X;X;X;X;X;X;X;X;X;X;X;X;X;X;X;X;X;X+XM | +.} } [ ' z V }.OX;X;X;X;X;X;X;X;X;X;X;X;X;X;X;X;X;X;X;X;X;X;X;X;X;X",
";X;X;X;X;X;X;X;X;X;X;X;X;X;X;X;X;X;X;X;X;X;X;X;X;X;X;XOXM +.@.| } ' l V  X;X;X;X;X;X;X;X;X;X;X;X;X;X;X;X;X;X;X;X;X;X;X;X;X;X;X;X",
";X;X;X;X;X;X;X;X;X;X;X;X;X;X;X;X;X;X;X;X;X;X;X;X;X;X;XOXM $.@.| } z d |.;X;X;X;X;X;X;X;X;X;X;X;X;X;X;X;X;X;X;X;X;X;X;X;X;X;X;X;X",
";X;X;X;X;X;X;X;X;X;X;X;X;X;X;X;X;X;X;X;X;X;X;X;X;X;X;XXXG $.@.| ' l d OX;X;X;X;X;X;X;X;X;X;X;X;X;X;X;X;X;X;X;X;X;X;X;X;X;X;X;X;X",
";X;X;X;X;X;X;X;X;X;X;X;X-X-X-X-X;X;X;X;X;X;X;X;X;X;X$XZ +.E.@.| ' l d OX;X;X;X;X;X;X;X;X;X;X;X-X-X;X-X;X;X;X;X;X;X;X;X;X;X;X;X;X",
";X;X;X;X;X;X;X;X;X;X;X-X&X&X&X&X&X-X;X;X;X;X;X;X;X;X XG #.E.@.| ) l d OX;X;X;X;X;X;X;X;X;X;X-X&X&X*X&X-X;X;X;X;X;X;X;X;X;X;X;X;X",
";X;X;X;X;X;X;X;X;X;X-X&X&X&X&X&X&X&X-X;X;X;X;X;X;X#XZ #.R.E.@.| ' l d  X;X;X;X;X;X;X;X;X;X-X&X&X&X&X%X%X;X;X;X;X;X;X;X;X;X;X;X;X",
";X;X;X;X;X;X;X;X;X-X-X&X&X&X&X&X&X&X;X;X;X;X;X;X;XXXG $.E.$.X.| { ' j V  X;X;X;X;X;X;X;X;X-X&X&X&X&X%X%X-X;X;X;X;X;X;X;X;X;X;X;X",
";X;X;X;X;X;X;X;X;X-X-X-X;X;X;X;X;X;X;X;X;X;X;X;XXXL $.%.$.@.X...| { ) j V OX;X;X;X;X;X;X;X-X-X-X&X&X%X%X-X-X;X;X;X;X;X;X;X;X;X;X",
"@X@X@X%X@X@X@X@X@X@X@X@X@X@X@X@X@X@X@X@X@X@X$XXXL #.R.E.$.X.X.X. .] z k j |.$X$X@X@X@X@X@X@X@X@X@X@X@X@X@X@X@X@X@X@X@X@X@X@X@X@X",
"a.a.a.a.a.a.a.a.a.i.u.i.i.i.i.i.a.i.u.r.i.a.r.V +.R.%.$.@.X.X.X.{ ' ' l l d b r.a.a.a.i.i.i.i.i.u.u.u.i.p.u.i.a.a.a.a.a.a.a.r.a.",
"[.[.{.{.[.{.[.[.'.'.'.'.'.'.'.'.'.'.'.(.(.[.U.S  .X.@.$.@.X.X...] ' ' ' z j > T.[.[.[.].].'.'.(.'.'.'.'.].'.'.'.[.[.[.[.[.[.[.[.",
"Y.Y.H.H.H.H.H.Y.H.F.F.F.F.F.j.F.F.F.F.F.F.F.D J ' ' ' ] ] ' ' ' ' ' ) z z z k F F.!.!.k.k.k.H.F.F.F.F.F.H.H.F.H.Y.H.H.H.Y.Y.Y.H.",
"j.j.j.j.j.j.j.j.j.h.f.f.f.f.f.f.f.f.P.P.F.h.q : > > > > > > > > > > > ; ; > > q f.k.k.g.g.j.j.h.h.h.h.h.h.h.f.h.j.j.j.F.k.j.j.j.",
"j.F.j.j.F.j.j.j.j.h.h.f.h.f.f.f.h.h.Z.B.g.k.M.6.6.6.6.6.6.6.6.6.6.6.6.6.6.6.6.M.F.k.k.j.h.j.h.h.h.h.h.h.h.h.h.h.F.j.F.K.k.j.j.k.",
"j.j.F.F.F.j.j.j.j.j.h.h.h.h.h.h.j.g.j.g.k.k.k.g.g.j.j.g.j.j.j.j.F.F.j.j.j.g.j.k.k.H.k.g.h.h.h.h.h.h.h.h.h.f.h.j.K.F.F.k.k.k.k.k.",
"j.j.j.F.Z.h.j.j.j.j.j.h.h.h.h.h.j.j.j.k.k.l.l.l.l.l.l.l.l.l.k.k.F.k.k.l.l.k.k.k.F.F.k.k.h.h.h.h.h.h.j.h.f.f.j.k.F.F.F.F.k.k.k.k.",
"j.j.j.j.j.j.j.j.k.k.k.k.k.k.k.k.k.k.k.k.Y.k.k.k.l.l.l.l.l.l.l.k.k.k.k.l.l.k.k.k.k.k.l.l.k.k.g.g.g.g.g.k.k.j.j.F.k.k.k.k.k.k.k.k.",
"f.f.f.f.f.f.f.Z.j.j.j.j.j.j.j.g.k.k.k.j.F.j.F.g.g.g.g.g.g.g.g.g.g.j.F.F.j.g.k.k.k.g.g.g.g.k.j.j.g.j.g.g.k.j.h.h.j.j.j.j.j.j.j.j.",
"9.9.9.9.9.9.9.9.9.9.9.9.,.,.9.0.h.j.h.0.9.9.9.9.9.9.9.9.9.9.9.9.9.9.9.9.9.0.h.h.Z.0.9.9.9.9.9.9.,.9.9.9.9.9.9.9.9.9.9.9.9.,.,.,.",
"2.2.2.3.2.2.2.2.3.3.2.2.2.2.2.2.0.d.0.2.2.2.2.2.2.2.3.3.2.3.2.2.2.2.2.2.2.2.0.d.9.2.2.2.2.2.3.3.2.2.2.2.2.2.2.2.2.2.2.2.2.2.3.2."
};
