/* XPM */
static char *_f626022112044b6947a5c97eb2918f8c2V8rBF5do2Z4c3j[] = {
/* columns rows colors chars-per-pixel */
"64 64 202 2 ",
"   c #523017",
".  c #653617",
"X  c #6B3013",
"o  c #663B26",
"O  c #71392B",
"+  c #5E5415",
"@  c #5C4C3D",
"#  c #4A563D",
"$  c #475C3A",
"%  c #48583A",
"&  c #4B5C3C",
"*  c #56573C",
"=  c #5D533C",
"-  c #535B3C",
";  c #66412A",
":  c #7D452F",
">  c #64493D",
",  c #784733",
"<  c #6C553C",
"1  c #63583D",
"2  c #6B593C",
"3  c #74573C",
"4  c #7A5A3C",
"5  c #4A6437",
"6  c #4A6636",
"7  c #4C633B",
"8  c #4E6939",
"9  c #52643C",
"0  c #536C39",
"q  c #516C3A",
"w  c #547535",
"e  c #5A7D35",
"r  c #537239",
"t  c #5E7F3B",
"y  c #68653A",
"u  c #786D3A",
"i  c #777C3E",
"p  c #5C4C41",
"a  c #4A5740",
"s  c #4C5C46",
"d  c #4C5E48",
"f  c #535341",
"g  c #535D42",
"h  c #545D4B",
"j  c #634C42",
"k  c #6A4B42",
"l  c #744D43",
"z  c #695546",
"x  c #775948",
"c  c #765C50",
"v  c #7B5D51",
"b  c #4F664B",
"n  c #576747",
"m  c #52654C",
"M  c #54694D",
"N  c #5D754A",
"B  c #5B6552",
"V  c #536B52",
"C  c #576A55",
"Z  c #5B6952",
"A  c #567253",
"S  c #5A7455",
"D  c #5D7A55",
"F  c #646347",
"G  c #716E41",
"H  c #677843",
"J  c #626653",
"K  c #7D6152",
"L  c #7A6552",
"P  c #617B55",
"I  c #68735C",
"U  c #B81A09",
"Y  c #BE230B",
"T  c #B11B21",
"R  c #912D2B",
"E  c #AF302D",
"W  c #C43D2A",
"Q  c #C42C32",
"!  c #C13F31",
"~  c #95492F",
"^  c #9A473D",
"/  c #B5432E",
"(  c #C34E34",
")  c #815F53",
"_  c #A54D4C",
"`  c #86614C",
"'  c #846355",
"]  c #8A6656",
"[  c #876559",
"{  c #896659",
"}  c #8D695C",
"|  c #926C5C",
" . c #986E5C",
".. c #9B725E",
"X. c #A3755F",
"o. c #936E61",
"O. c #967061",
"+. c #9B7362",
"@. c #A57661",
"#. c #A67A64",
"$. c #AB7B64",
"%. c #B37E65",
"&. c #C15949",
"*. c #D3716F",
"=. c #5D8236",
"-. c #5F813F",
";. c #62853C",
":. c #68893C",
">. c #788A3D",
",. c #58894B",
"<. c #4E8850",
"1. c #548C50",
"2. c #648443",
"3. c #6E8044",
"4. c #658942",
"5. c #6A8C44",
"6. c #768340",
"7. c #718E45",
"8. c #7A8E44",
"9. c #6E9144",
"0. c #6F9049",
"q. c #729344",
"w. c #7B9345",
"e. c #769945",
"r. c #7B9C45",
"t. c #759449",
"y. c #759C4B",
"u. c #7C9C48",
"i. c #769953",
"p. c #7EA144",
"a. c #77A14E",
"s. c #78A14E",
"d. c #77A150",
"f. c #7AA153",
"g. c #719B69",
"h. c #72AC7F",
"j. c #8C902E",
"k. c #89A53B",
"l. c #8DAB3F",
"z. c #90A537",
"x. c #94AE3D",
"c. c #8EB13F",
"v. c #98B837",
"b. c #96B23B",
"n. c #99B53D",
"m. c #9DBA3B",
"M. c #A0BF39",
"N. c #869B44",
"B. c #969640",
"V. c #83A544",
"C. c #8AA545",
"Z. c #86A943",
"A. c #8CAD44",
"S. c #86A448",
"D. c #8DAB49",
"F. c #94AA47",
"G. c #92AD44",
"H. c #8EB143",
"J. c #93B443",
"K. c #9AB542",
"L. c #96B844",
"P. c #9BBA45",
"I. c #94B749",
"U. c #9AB64C",
"Y. c #9CBC4A",
"T. c #93AC51",
"R. c #9AB358",
"E. c #A0BB44",
"W. c #A0B25A",
"Q. c #B58167",
"!. c #BB836A",
"~. c #A2C144",
"^. c #A2C34B",
"/. c #A7C84E",
"(. c #A8CA4F",
"). c #A6C553",
"_. c #A9CA51",
"`. c #ACCD53",
"'. c #A7C559",
"]. c #A9C65B",
"[. c #ADC95D",
"{. c #AEC960",
"}. c #6FA683",
"|. c #71A684",
" X c #73AA86",
".X c #74AD89",
"XX c #78B784",
"oX c #76B28D",
"OX c #76B38D",
"+X c #78B58F",
"@X c #7BBB8E",
"#X c #77B590",
"$X c #78B691",
"%X c #7BBE95",
"&X c #7CBF95",
"*X c #7CBF97",
"=X c #7DBF98",
"-X c #7BC095",
";X c #7CC097",
":X c #7EC099",
">X c #7FC299",
",X c #7FC29A",
/* pixels */
":X:X:X:X:X:X:X:X:X:X:X:X:X:X:X:X:X:X:X:X:X:X:X:X:X:X:X:X:X:X:X:X:X:X:X:X:X:X:X:X:X:X:X:X:X:X:X:X:X:X:X:X:X:X:X:X:X:X:X:X:X:X:X:X",
":X:X:X:X:X:X:X:X:X:X:X:X:X:X:X:X:X:X:X:X:X:X:X:X:X:X:X:X:X:X:X:X:X:X:X:X:X:X:X:X:X:X:X:X:X:X:X:X:X:X:X:X:X:X:X:X:X:X:X:X:X:X:X:X",
":X:X:X:X:X:X:X:X:X:X:X:X:X:X:X:X:X:X:X:X:X:X:X:X:X:X:X:X:X:X:X:X:X:X:X:X:X:X:X:X:X:X:X:X:X:X:X:X:X:X:X:X:X:X:X:X:X:X:X:X:X:X:X:X",
":X:X:X:X:X:X:X:X:X:X:X:X:X:X:X:X:X:X:X:X:X:X:X:X:X:X:X:X:X:X:X:X:X:X:X:X:X:X:X:X:X:X:X:X:X:X:X:X:X:X:X:X:X:X:X:X:X:X:X:X:X:X:X:X",
":X:X:X:X:X:X:X:X:X:X:X:X*X*X;X;X:X:X:X:X:X:X:X:X:X:X:X:X:X:X:X:X:X:X:X:X:X:X:X:X:X:X:X:X:X:X:X:X:X:X:X:X:X:X:X:X:X:X:X:X:X:X:X:X",
":X:X:X:X:X:X:X:X:X:X:X%X%X%X%X%X%X:X:X:X:X:X:X:X:X:X:X:X:X:X:X:X:X:X:X:X:X:X:X:X:X:X:X:X:X:X:X:X:X:X:X:X:X:X:X:X:X:X:X:X:X:X:X:X",
":X:X:X:X:X:X:X:X:X:X%X%X%X%X%X%X-X;X:X:X:X:X:X:X:X:X:X:X:X:X:X:X:X:X:X:X:X:X:X:X:X:X:X:X:X:X:X:X:X:X:X:X:X:X:X:X:X:X:X:X:X:X:X:X",
":X:X:X:X:X:X:X:X:X*X%X%X%X%X%X%X%X-X-X-X*X%X%X;X:X:X:X:X:X:X:X:X:X:X:X:X:X:X:X:X:X:X:X:X:X:X:X:X:X:X:X:X:X:X:X:X:X:X:X:X:X:X:X:X",
":X:X:X:X:X:X:X:X;X%X%X%X%X%X%X%X%X%X%X%X%X%X%X%X-X-X:X:X:X$XOXOXOXOX#X=X:X:X:X:X:X:X:X:X:X:X:X:X:X:X:X:X:X:X:X:X:X:X:X:X:X:X:X:X",
"-X-X;X:X;X;X;X;X%X%X%X%X%X%X%X%X%X%X%X%X%X%X%X%X-X;X;X;X.XS M M M M S  X#X=X:X:X:X:X:X:X:X:X:X:X:X:X:X:X:X:X:X:X:X:X:X:X:X:X:X:X",
"%X;X;X*X%X%X%X%X%X%X%X%X%X%X%X%X%X%X%X%X-X;X;X;X;X;X;X.XP C.G.G.G.G.C.N A  X:X:X:X:X:X:X:X:X:X:X:X:X:X:X:X:X:X:X:X:X:X:X:X:X:X:X",
"%X;X:X;X%X%X%X%X%X%X%X%X%X%X%X%X%X;X;X%XOXOXOXOXOXOX XD D._._._.P.P.P.G.N.D  X:X:X:X:X:X:X:X:X:X:X:X:X:X:X:X:X:X:X:X:X:X:X:X:X:X",
"*X%X*X*X%X%X%X%X%X%X%X%X%X%X%X%X*X;X;X.XS m m M m m N u._.`.^.(.P.P.L.Y.^.e.V  XOXOXOXOXOX#X=X:X:X:X:X:X:X:X:X:X:X:X:X:X:X:X:X:X",
"%X%X-X-X%X%X%X%X%X%X%X%X%X%X%X*X;X*X.XD N.A.A.A.A.G.U.Y._.^.P.L.J.J.J.L./.A.n M M M M M M S  X:X:X:X:X:X:X:X:X:X:X:X;X;X;X;X*X%X",
"%X%X%X-X%X%X%X;X%X%X%X%X%X%X;X:X*X.XD D._._.Y.P.P.P.~._.^.P.J.H.J.J.J.J.L.J.I.J.G.G.G.A.A.C.P  X:X:X:X:X:X:X:X:X;X-X;X:X;X%X%X%X",
"%X%X%X%X%X%X%X%X%X%X%X%X%X:X:X:X.XP D._.^.P.P.P.P.P.P.(.Y.J.A.A.H.J.J.J.J.P.(.`.`.`._.P.P.P.C.P .X:X:X:X;X;X;X;X-X-X-X;X%X%X%X%X",
"-X-X%X%X-X-X-X;X;X*X%X%X;X;X;X.XP R.`.^.P.U.P.P.P.P.P.P.J.V.p.V.Z.J.J.J.J.P./.^._.^.Y.P.P.P.P.C.P  X*X%X%X%X%X%X%X%X%X%X%X%X%X%X",
"-X-X;X;X:X:X:X:X:X:X:X:X:X;X.XP C.Y.P.P.P.U.U.P.P.P.P.P.V.q.e.p.V.H.J.J.J.P.P.P.Y.K.C.J.P.P.P.J.N.S OX-X%X-X;X;X%X%X*X%X%X%X%X%X",
";X:X:X:X:X:X:X:X:X:X:X:X:X$XS C.^.P.L.Y.P.H.A.P.P.J.J.J.u.q.9.q.e.r.A.J.P.J.J.I.T./ : N.L.P.L.J.V.n }.-X%X%X;X%X%X%X%X%X%X%X%X%X",
":X:X:X:X:X:X:X:X:X:X:X:X$X XN U.U.J.J.L.J.p.p.J.J.u.p.p.q.q.9.9.q.t.u.Z.J.L.L.x.~ R _ 3 C.P.J.p.q.n A  X%X%X%X%X%X%X%X;X%X%X%X%X",
":X:X:X:X:X:X:X:X:X:X:X.XS N T.P.U.J.J.J.J.A.H.Z.Z.e.q.q.q.q.9.9.q.q.u.V.H.J.L.x.! *.E E B.J.J.A.J.A.C.P  X%X;X%X%X%X%X;X-X-X-X%X",
":X:X:X:X:X:X:X:X:X:X.XP S.U.Y.P.P.J.J.c.c.c.c.V.e.q.q.9.9.9.5.5.5.5.q.t.p.A.L.l.~ Q T O w.Z.H.J.J.P.).T.A OX;X%X%X%X%X;X;X-X-X-X",
":X:X:X:X:X:X:X:X:X$XS S./.P.P.P.P.J.H.l.k.Z.A.I.t.q.t.9.9.9.5.5.5.5.9.9.9.e.H.A.8.; o 3.y.y.u.u.u.u.S.u.M  X*X;X%X%X%X%X-X;X-X-X",
":X:X:X:X:X:X:X:X:XOXM D.(.P.L.P.P.J.A.A.C.F.C.H.e.q.t.q.9.5.5.5.5.5.5.5.5.9.e.Z.q.q.7.,.1.1.5.5.5.5.t.u.7.A OX:X;X:X:X:X:X:X;X;X",
":X:X:X:X:X:X:X:X:XOXM D./.^.P.P.J.A.e.B.( &.: >.q.q.e.t.9.9.9.5.5.5.5.5.5.5.9.r.9.9.9.,.<.<.4.4.4.4.q.t.5.m OX:X:X:X:X:X:X:X:X:X",
":X:X:X:X:X:X:X:X:X#XM C.P./.~.P.J.e.6./ ^ R T i 9.q.t.t.q.9.9.9.5.5.5.5.5.5.5.5.5.9.9.,.<.<.4.4.5.5.q.t.5.m OX:X:X:X:X:X:X:X:X:X",
":X:X:X:X:X:X:X:X:XOXm t.J.P.P.P.J.e.;., *.Q R i q.t.t.t.t.q.q.q.9.q.q.q.7.7.5.5.5.9.9.1.<.,.4.4.5.5.q.q.5.m OX:X:X:X:X:X:X:X:X:X",
":X:X:X:X:X:X:X:X:XOXM t.u.A.J.J.S.e.5.i E E u 7.t.t.t.t.t.t.t.q.q.q.q.q.q.7.9.9.q.t.q.4.,.:.5.5.e.q.9.q.5.m OX:X:X:X:X:X:X:X:X:X",
":X:X:X:X:X:X:X:X:X+XM t.t.e.u.p.S.t.q.7.i i 7.9.t.q.q.q.q.q.q.t.t.q.q.q.q.q.9.e.u.e.t.5.5.q.e.A.I.e.q.q.5.m OX:X:X:X:X:X:X:X:X:X",
":X:X:X:X:X:X:X:X:X+XM q.t.q.q.q.t.q.q.q.q.q.9.9.q.:.=.=.=.=.5.5.q.9.5.9.9.5.4.;.9.q.t.q.q.Z.A.J.L.D.q.5.;.m OX:X:X:X:X:X:X:X:X:X",
":X:X:X:X:X:X:X:X:X$Xm 5.q.0.0.q.q.q.9.9.5.5.5.5.;.e r r w r r r H 2.-.=.=.2.e e 5.9.t.q.q.A.A.A.J.e.5.5.;.m OX:X:X:X:X:X:X:X:X:X",
":X:X:X:X:X:X:X:X:X$XV N :.5.9.9.9.5.5.:.=.e e e q = q r r r q 8 & & & & - q & = n 5.q.t.t.V.e.e.e.5.5.5.t M OX:X:X:X:X:X:X:X:X:X",
":X:X:X:X:X:X:X:X:X:X.XA t 4.9.9.5.5.;.t & & 5 8 9 = 9 q q q q 5 $ $ % @ k - @ > g 5.q.q.q.q.5.5.5.5.5.4.A  X=X:X:X:X:X:X:X:X:X:X",
":X:X:X:X:X:X:X:X:X:X:X Xm N 2.2.2.2.e 7 # # 7 8 g z z q q q q 7 5 5 $ @ l l l l 9 2.5.5.5.5.5.5.5.5.4.2. X:X:X:X:X:X:X:X:X:X:X:X",
":X:X:X:X:X:X:X:X:X:X:X$XV a a & r r 8 8 7 & $ 7 8 9 9 q q q z - 5 5 % @ l x 3 - $ - - 8 8 r e =.;.;.t A OX:X:X:X:X:X:X:X:X:X:X:X",
":X:X:X:X:X:X:X:X:X:X:X:X Xm # 5 r r q 8 q 7 # p - 8 q r q q z j 7 5 = 3 4 4 * $ & p j 7 5 5 8 q 8 8 b |.=X:X:X:X:X:X:X:X:X:X:X:X",
":X:X:X:X:X:X:X:X:X:X:X:X:X XV 7 7 7 7 7 7 9 p k 3 * 9 8 q 9 z z - 9 ' ] ` 4 - & @ j j - 7 & $ 7 7 $ b OX:X:X:X:X:X:X:X:X:X:X:X:X",
":X:X:X:X:X:X:X:X:X:X:X:X:X:X XV d d d d d f p > 4 3 2 * 9 L } } K z +.+.} K F = > > @ f f f a d d M  X:X:X:X:X:X:X:X:X:X:X:X:X:X",
":X:X:X:X:X:X:X:X:X:X:X:X:X:X:XOXOXOXOXOX|.m s h x 3 4 3 = ' o.O.+.| #.+.{ ' < < > @ g d d d m }.OXOX:X:X:X:X:X:X:X:X:X:X:X:X:X:X",
":X:X:X:X:X:X:X:X:X:X:X:X:X:X:X:X:X:X:X:X:XOXOXOX XZ 2 x ' { } | O.+.+.O.[ ' K v < m |.OXOXOXOX:X:X:X:X:X:X:X:X:X:X:X:X:X:X:X:X:X",
":X:X:X:X:X:X:X:X:X:X:X:X:X:X:X:X:X:X:X:X:X:X:X:X:X XZ x ' } o.o.+.+. .} [ ' ' c B |.:X:X:X:X:X:X:X:X:X:X:X:X:X:X:X:X:X:X:X:X:X:X",
":X:X:X:X:X:X:X:X:X:X:X:X:X:X:X:X:X:X:X:X:X:X:X:X:X:X XZ c [ } o.+.o.} [ ' K c B |.=X:X:X:X:X:X:X:X:X:X:X:X:X:X:X:X:X:X:X:X:X:X:X",
":X:X:X:X:X:X:X:X:X:X:X:X:X:X:X:X:X:X:X:X:X:X:X:X:X:X:X Xz ' } } o.} [ ' K h C  X:X:X:X:X:X:X:X:X:X:X:X:X:X:X:X:X:X:X:X:X:X:X:X:X",
":X:X:X:X:X:X:X:X:X:X:X:X:X:X:X:X:X:X:X:X:X:X:X:X:X:X:X+XB | +.} } [ ' v Z }.OX:X:X:X:X:X:X:X:X:X:X:X:X:X:X:X:X:X:X:X:X:X:X:X:X:X",
":X:X:X:X:X:X:X:X:X:X:X:X:X:X:X:X:X:X:X:X:X:X:X:X:X:X:XOXB +.@.| } ' c Z  X:X:X:X:X:X:X:X:X:X:X:X:X:X:X:X:X:X:X:X:X:X:X:X:X:X:X:X",
":X:X:X:X:X:X:X:X:X:X:X:X:X:X:X:X:X:X:X:X:X:X:X:X:X:X:XOXB $.@.| } v h |.:X:X:X:X:X:X:X:X:X:X:X:X:X:X:X:X:X:X:X:X:X:X:X:X:X:X:X:X",
":X:X:X:X:X:X:X:X:X:X:X:X:X:X:X:X:X:X:X:X:X:X:X:X:X:X:X.XJ $.@.| ' c h OX:X:X:X:X:X:X:X:X:X:X:X:X:X:X:X:X:X:X:X:X:X:X:X:X:X:X:X:X",
":X:X:X:X:X:X:X:X:X:X:X:X;X;X;X;X:X:X:X:X:X:X:X:X:X:X$XS +.!.@.| ' c h OX:X:X:X:X:X:X:X:X:X:X:X;X;X:X;X:X:X:X:X:X:X:X:X:X:X:X:X:X",
":X:X:X:X:X:X:X:X:X:X:X;X*X*X*X*X*X;X:X:X:X:X:X:X:X:X XJ #.!.@.| ) c h OX:X:X:X:X:X:X:X:X:X:X;X*X*X=X*X;X:X:X:X:X:X:X:X:X:X:X:X:X",
":X:X:X:X:X:X:X:X:X:X;X*X*X*X*X*X*X*X;X:X:X:X:X:X:X#XS #.Q.!.@.| ' c h  X:X:X:X:X:X:X:X:X:X;X*X*X*X*X%X%X:X:X:X:X:X:X:X:X:X:X:X:X",
":X:X:X:X:X:X:X:X:X;X;X*X*X*X%X*X*X*X;X:X:X:X:X:X:X.XJ $.!.$.X.| { ' z Z  X:X:X:X:X:X:X:X:X;X*X*X*X*X%X%X;X:X:X:X:X:X:X:X:X:X:X:X",
":X:X:X:X:X:X:X:X:X;X;X;X%X X X@X*X%X*X*X:X:X:X:X.XI $.%.$.@.X...| { ) z Z OX:X:X:X:X:X:X:X;X;X;X*X*X%X%X;X;X:X:X:X:X:X:X:X:X:X:X",
"@X@X@X%X@X@X@X@X@X@X@XXXg.; o g.XXh.h.XX@X%X$X.XI #.Q.!.$.X.X.X. .] v x z |.$X$X@X@X@X@X@X@X@X@X@X@X@X@X@X@X@X@X@X@X@X@X@X@X@X@X",
"f.f.f.f.f.f.f.f.f.s.a.q.o W Y . ;.; . :.a.f.i.Z +.Q.%.$.@.X.X.X.{ ' ' c c h M i.f.f.f.s.s.s.s.s.a.a.a.s.d.a.s.f.f.f.f.f.f.f.f.f.",
"[.[.{.[.[.{.[.[.'.'.'.U.. U U   X W Y + U.[.R.F  .X.@.$.@.X.X...{ ' ' ' v z 2 W.[.[.[.].].'.'.'.'.'.'.'.].'.'.'.[.[.[.[.[.[.[.[.",
"E.E.P.P.P.P.P.E.P.K.n.b.j.. . j.X U U + x.K.G L ' ' ' ] ] ' ' ' ' ' ) v v v x G K.~.~.m.m.m.P.K.K.K.K.K.P.P.K.P.E.P.P.P.E.E.E.P.",
"n.n.n.n.n.n.n.n.n.b.x.x.b.z.z.n.j.    >.J.b.y 1 2 2 2 2 2 2 2 2 2 2 2 < < 2 2 y x.m.m.v.v.n.n.b.b.b.b.b.b.b.x.b.n.n.n.K.m.n.n.n.",
"n.K.n.n.K.n.n.n.n.b.b.x.b.b.b.b.b.k.k.l.v.m.C.w.8.8.8.8.8.8.8.8.8.8.8.8.8.8.w.C.K.m.m.n.b.n.b.b.b.b.b.b.b.b.b.b.K.n.K.U.m.n.n.n.",
"n.n.K.K.K.n.n.n.n.n.b.b.b.b.b.b.b.v.v.v.m.m.m.v.v.n.n.v.n.n.n.n.K.K.n.n.n.v.n.m.m.P.m.v.b.b.b.b.b.b.b.b.b.x.b.n.U.K.K.m.m.m.m.m.",
"n.n.n.K.G.b.n.n.n.n.n.b.b.b.b.b.n.n.n.m.m.M.M.M.M.M.M.M.M.M.m.m.K.m.m.M.M.m.m.m.K.K.m.m.b.b.b.b.b.b.n.b.x.x.n.m.K.K.K.K.m.m.m.m.",
"n.n.n.n.n.n.n.n.m.m.m.m.m.m.m.m.m.m.m.m.E.m.m.m.M.M.M.M.M.M.M.m.m.m.m.m.m.m.m.m.m.m.m.M.m.m.v.v.v.v.m.m.m.n.n.K.m.m.m.m.m.m.m.m.",
"x.x.x.x.x.x.x.G.n.n.n.n.n.n.v.v.m.m.m.n.K.n.K.n.v.v.v.v.v.v.v.v.v.n.K.K.n.v.m.m.m.v.v.v.v.v.n.n.v.n.v.v.v.n.b.b.n.n.n.n.n.n.n.n.",
"q.q.q.q.q.q.q.q.q.q.q.q.>.>.q.e.b.n.b.e.q.q.q.q.q.q.q.q.q.q.q.q.q.q.q.q.q.e.b.b.G.e.q.q.q.q.q.q.>.q.q.q.q.q.q.q.q.q.q.q.q.>.>.>.",
"5.5.5.5.5.5.5.5.5.5.5.5.5.5.5.5.e.l.e.5.5.5.5.5.5.5.5.5.5.5.5.5.5.5.5.5.5.5.e.l.q.5.5.5.5.5.5.5.5.5.5.5.5.5.5.5.5.5.5.5.5.5.5.5."
};
