/* XPM */
static char *_c59f58ce24d4d22f87c1e6525403b208HiSicGm2jNflgwT[] = {
/* columns rows colors chars-per-pixel */
"64 64 210 2 ",
"   c #5C4C3D",
".  c #49563C",
"X  c #475C3A",
"o  c #4B5C3C",
"O  c #5D533C",
"+  c #525B3C",
"@  c #575A3D",
"#  c #64493C",
"$  c #6C563C",
"%  c #63583D",
"&  c #6B593C",
"*  c #76583C",
"=  c #4A6437",
"-  c #4A6636",
";  c #4C633B",
":  c #4E693A",
">  c #52643C",
",  c #536C39",
"<  c #526C3A",
"1  c #5A7D35",
"2  c #537239",
"3  c #597A38",
"4  c #68653A",
"5  c #756339",
"6  c #5C4C41",
"7  c #4B5A45",
"8  c #4C5C46",
"9  c #555943",
"0  c #555D4B",
"q  c #654B42",
"w  c #744D43",
"e  c #695646",
"r  c #775948",
"t  c #765C50",
"y  c #7B5D51",
"u  c #4D6647",
"i  c #576847",
"p  c #52654B",
"a  c #55694D",
"s  c #5D754A",
"d  c #5B6552",
"f  c #546B52",
"g  c #576A55",
"h  c #5B6A52",
"j  c #5B7455",
"k  c #597655",
"l  c #666648",
"z  c #776949",
"x  c #667843",
"c  c #757D48",
"v  c #626653",
"b  c #7D6152",
"n  c #756956",
"m  c #617B55",
"M  c #66765A",
"N  c #717A5D",
"B  c #5B7F61",
"V  c #835D3A",
"C  c #866338",
"Z  c #856A39",
"A  c #89713D",
"S  c #9C5546",
"D  c #815F53",
"F  c #AB524A",
"G  c #AD4E54",
"H  c #B24655",
"J  c #B54E56",
"K  c #B94E57",
"L  c #A95354",
"P  c #B65858",
"I  c #836746",
"U  c #847A49",
"Y  c #846355",
"T  c #8A6656",
"R  c #876559",
"E  c #896659",
"W  c #8D695C",
"Q  c #926C5C",
"!  c #986E5C",
"~  c #9B725E",
"^  c #AA6355",
"/  c #BA625B",
"(  c #A3755F",
")  c #936E61",
"_  c #967061",
"`  c #9B7362",
"'  c #A57761",
"]  c #A67B65",
"[  c #AB7B63",
"{  c #B37E65",
"}  c #C34A54",
"|  c #C64B59",
" . c #C9485C",
".. c #C4535A",
"X. c #CE4A60",
"o. c #CA5060",
"O. c #D65461",
"+. c #D75A60",
"@. c #DB656A",
"#. c #DB6869",
"$. c #D4756E",
"%. c #DA7A6A",
"&. c #D87970",
"*. c #E27C62",
"=. c #E26C72",
"-. c #E27273",
";. c #E07A73",
":. c #5D8236",
">. c #5E823F",
",. c #62853C",
"<. c #668C3D",
"1. c #6D933F",
"2. c #598F4A",
"3. c #568D53",
"4. c #579A54",
"5. c #648442",
"6. c #658942",
"7. c #6A8B44",
"8. c #698946",
"9. c #7A8547",
"0. c #738847",
"q. c #7A8D45",
"w. c #7C854A",
"e. c #7C8A4A",
"r. c #6F9244",
"t. c #659844",
"y. c #6F9249",
"u. c #739344",
"i. c #7D9243",
"p. c #759945",
"a. c #7C9C46",
"s. c #759548",
"d. c #789448",
"f. c #7B9C48",
"g. c #659D53",
"h. c #799951",
"j. c #5AA25C",
"k. c #7EA145",
"l. c #7DA449",
"z. c #65AE54",
"x. c #64A759",
"c. c #7AA153",
"v. c #62AC60",
"b. c #6CB565",
"n. c #8DA83F",
"m. c #94AD3D",
"M. c #95B23E",
"N. c #9AB43E",
"B. c #9CBA3B",
"V. c #A0BF39",
"C. c #848946",
"Z. c #81854A",
"A. c #839847",
"S. c #95944E",
"D. c #83A445",
"F. c #8AA445",
"G. c #8DAC45",
"H. c #82A249",
"J. c #8AA848",
"K. c #91AD44",
"L. c #97AA48",
"P. c #8DB046",
"I. c #94B445",
"U. c #96B646",
"Y. c #9AB442",
"T. c #9BBA45",
"R. c #99B64B",
"E. c #9CBC4A",
"W. c #93AA51",
"Q. c #9AB355",
"!. c #A1BB44",
"~. c #A5BA57",
"^. c #B58167",
"/. c #BB836A",
"(. c #BF9D66",
"). c #AAA960",
"_. c #E49E5F",
"`. c #C58564",
"'. c #C48D62",
"]. c #DA8866",
"[. c #C89964",
"{. c #DA9B64",
"}. c #E59364",
"|. c #E5A361",
" X c #A3C244",
".X c #A3C34B",
"XX c #A8C94E",
"oX c #A6C751",
"OX c #AACB52",
"+X c #ADC95D",
"@X c #B0CC5D",
"#X c #6FA782",
"$X c #71A684",
"%X c #73AA85",
"&X c #79AD87",
"*X c #74AD89",
"=X c #75BA86",
"-X c #76B28D",
";X c #78B38D",
":X c #7BBB8E",
">X c #77B590",
",X c #79B691",
"<X c #7BBE94",
"1X c #7CBF97",
"2X c #7DBF98",
"3X c #7DC096",
"4X c #7DC097",
"5X c #7EC099",
"6X c #7FC299",
"7X c #82C099",
/* pixels */
"5X5X5X5X5X5X5X5X5X5X5X5X5X5X5X5X5X5X5X5X5X5X5X5X5X5X5X5X5X5X5X5X5X5X5X5X5X5X5X5X5X5X5X5X5X5X5X5X5X5X5X5X5X5X5X5X5X5X5X5X5X5X5X5X",
"5X5X5X5X5X5X5X5X5X5X5X5X5X5X5X5X5X5X5X5X5X5X5X5X5X5X5X5X5X5X5X5X5X5X5X5X5X5X5X5X5X5X5X5X5X5X5X5X5X5X5X5X5X5X5X5X5X5X5X5X5X5X5X5X",
"5X5X5X5X5X5X5X5X5X5X5X5X5X5X5X5X5X5X5X5X5X5X5X5X5X5X5X5X5X5X5X5X5X5X5X5X5X5X5X5X5X5X5X5X5X5X5X5X5X5X5X5X5X5X5X5X5X5X5X5X5X5X5X5X",
"5X5X5X5X5X5X5X5X5X5X5X5X5X5X5X5X5X5X5X5X5X5X5X5X5X5X5X5X5X5X5X5X5X5X5X5X5X5X5X5X5X5X5X5X5X5X5X5X5X5X5X5X5X5X5X5X5X5X5X5X5X5X5X5X",
"5X5X5X5X5X5X5X5X5X5X5X5X5X5X5X5X5X5X5X5X5X5X5X5X5X5X5X5X5X5X5X5X5X5X5X5X5X5X5X5X5X5X5X5X5X5X5X5X5X5X5X5X5X5X5X5X5X5X5X5X5X5X5X5X",
"5X5X5X5X5X5X5X5X5X2X1X2X2X2X2X1X1X4X2X5X5X5X5X5X5X5X5X5X5X5X5X5X5X5X5X5X5X5X5X5X5X5X5X5X5X5X5X5X5X5X5X5X5X5X5X5X5X5X5X5X5X5X5X5X",
"5X5X5X5X5X5X5X4X1X2X2X2X2X2X2X2X2X2X2X2X4X5X5X5X5X5X5X5X5X5X5X5X5X5X5X5X5X5X5X5X5X5X5X5X5X5X5X5X5X5X5X5X5X5X5X5X5X5X5X5X5X5X5X5X",
"5X5X5X5X5X5X5X5X4X1X2X2X2X2X2X2X5X2X2X2X1X1X1X2X5X5X5X5X5X5X5X5X5X5X5X5X5X5X5X5X5X5X5X5X5X5X5X5X5X5X5X5X5X5X5X5X5X5X5X5X5X5X5X5X",
"5X5X5X5X5X5X5X2X5X4X1X2X2X2X5X5X2X2X2X2X2X1X2X2X4X4X4X4X1X>X-X-X-X-X>X2X5X5X5X5X5X5X5X5X5X5X5X5X5X5X5X5X5X5X5X5X5X5X5X5X5X5X5X5X",
"4X5X5X5X5X5X2X2X1X4X4X2X2X2X2X2X2X1X1X1X2X2X2X1X4X4X1X<X%Xk a a a a k %X>X2X5X5X5X5X5X5X5X5X5X5X5X5X5X5X5X5X5X5X5X5X5X5X5X5X5X5X",
"1X4X4X5X5X2X2X2X1X1X1X2X1X1X1X1X1X1X1X1X1X2X5X1X4X4X1X%Xk F.K.K.K.K.F.s f %X5X5X5X5X5X5X5X5X5X5X5X5X5X5X5X5X5X5X5X5X5X5X5X5X5X5X",
"4X1X4X4X4X1X1X1X1X1X1X1X1X1X1X1X1X1X1X<X;X;X;X;X-X-X%Xk F.OXOXOXT.T.T.K.A.k %X5X5X5X5X5X5X5X5X5X5X5X5X5X5X5X5X5X5X5X5X5X5X5X5X5X",
"2X2X1X1X1X1X1X1X1X1X1X1X1X1X1X1X1X1X<X*Xk a a a a a s a.OXOX.XXXT.T.R.E..Xd.f %X;X;X;X;X-X>X2X5X5X5X5X5X5X5X5X5X5X5X5X5X5X5X5X5X",
"2X2X2X2X2X1X1X2X1X1X1X1X1X2X1X1X1X<X*Xk A.G.G.G.G.K.E.E.OX.XT.T.T.T.T.E.OXG.i i a a a a a k %X5X5X5X5X5X5X5X5X5X5X5X5X5X5X5X5X4X",
"1X1X1X1X2X2X2X1X1X2X2X5X4X1X1X4X1X*Xm J.oXOXE.T.T.T. XOX.XT.T.R.T.T.T.T.oXR.U.U.K.K.K.G.G.F.m %X5X5X5X5X5X5X5X5X5X5X4X4X4X4X1X4X",
"1X1X1X1X1X1X1X1X1X2X2X4X4X4X4X1X*Xm W.OX.X!.T.T.T.T.T.XXE.T.T.J.U.U.T.T.T.T.XXOXOXOXOXT.T.T.F.k *X5X5X5X2X4X5X5X5X5X4X4X4X1X1X<X",
"4X4X4X4X4X4X5X5X5X5X5X5X5X5X1X*Xm Q.OX.XT.R.T.T.T.T.T.T.T.U.U.U.P.U.T.T.T.T.XX.XOX.XE.T.T.T.T.F.m %X1X1X1X1X4X4X5X1X1X1X4X4X1X<X",
"5X5X5X5X5X5X5X5X5X5X5X5X5X5X*Xm F.E.T.T.T.R.R.T.T.T.T.T.D.p.p.p.t.f.U.T.T.T.T.T.E.T.R.T.T.T.T.U.A.k -X4X1X1X4X4X1X1X1X1X1X4X1X<X",
"5X5X5X5X5X5X5X5X5X5X5X5X5X>Xk J..XT.U.E.T.P.G.T.T.U.U.U.a.<.>.5.y.f.U.T.T.U.G.D.U.T.T.T.T.T.U.U.D.u #X<X1X2X5X2X1X1X1X1X1X1X4X1X",
"5X5X5X5X5X5X5X5X5X5X5X5X>X%Xs E.R.U.U.T.R.k.k.U.U.a.k.a.6.5.3.y.s.f.f.J.G.J.r.1.P.U.U.T.T.T.U.k.u.i f #X<X2X2X2X4X4X1X2X2X1X1X1X",
"5X5X5X5X5X5X5X5X5X5X5X-Xk s W.T.R.U.U.U.E.z.P.J.J.p.s.u.5.c (.S.A.A.f.H.l.2.4.7.D.U.U.U.T.U.U.G.U.K.J.m #X<X2X2X2X4X2X2X5X4X4X1X",
"5X5X5X5X5X7X5X5X5X5X*Xm F.R.E.T.U.D.u.i g.j.l.D.p.u.u.s.q.L ;.&.$./ C.s.7.i H.6.k.J.J.J.P.G.P.U.U.T.oXQ.k $X<X2X2X2X2X2X4X4X1X<X",
"5X5X5X5X5X7X5X5X5X>Xk H.XXE.T.T.T.G.q.l ).W.F.A.u.u.s.y.e.J #.-.=...Z.u.0.l (.c e.A.A.k.y.p.a.f.a.a.H.H.7.a -X5X5X2X2X1X4X4X4X1X",
"5X5X5X5X5X5X5X5X5X;Xa P.XXT.U.T.T.L./ ].&.&.&./ w.u.s.s.e.L  . . .K e.e.P ].&.$.$.P Z.y.3.3.7.7.7.7.s.a.r.p -X5X5X5X5X5X5X5X5X5X",
"5X5X5X5X5X5X5X5X5X;Xa G.XX.XT.T.T.L.K #.-.-.-.o.w.s.p.p.s.Z.G H G S.s.w.K #.-.-.=.o.w.7.3.3.3.6.6.7.s.s.7.p -X5X5X5X5X5X5X7X5X5X",
"5X5X5X5X5X5X5X5X5X>Xa F.T.XX XT.T.L.P  .X.X. .K w.s.s.s.s.s.e.w.e.f.s.9.G  .X.X. .K c 6.6.t.t.i 7.s.s.s.7.p -X5X5X5X5X5X5X5X5X5X",
"5X5X5X5X5X5X5X5X5X;Xp u.U.T.T.T.U.U.S.L H H G U s.s.s.s.s.s.s.s.s.s.s.u.U G H H G Z.s.r.7.Q.L.l 9.e.s.s.7.p -X5X5X5X5X5X5X5X5X5X",
"5X5X5X5X5X5X5X5X5X;Xa s.f.G.U.P.J.D.f.q.9.9.9.s.s.s.s.s.s.s.s.s.s.s.s.s.u.9.9.q.A.f.s.p.i.^ $.$.$.P e.s.7.p -X5X5X5X5X5X5X5X5X5X",
"5X5X5X5X5X5X5X5X5X>Xa s.s.f.a.a.H.s.u.u.u.r.r.r.s.s.u.u.u.u.u.s.s.s.u.u.u.u.r.p.a.p.s.p.A.L @.=.=...w.r.7.p -X5X5X5X5X5X5X5X5X5X",
"5X5X5X5X5X5X5X5X5X;Xa u.s.s.u.s.s.u.u.u.u.u.r.r.u.<.:.:.:.:.7.7.u.r.7.r.r.7.6.,.r.u.s.s.e.L  . . .J 9.7.,.p -X5X5X5X5X5X5X5X5X5X",
"5X5X5X5X5X5X5X5X5X>Xp 7.u.y.y.u.u.u.u.r.7.7.7.7.,.1 2 2 2 2 2 2 x 5.>.:.:.5.1 1 7.r.s.s.u.Z.G H G U r.7.,.p -X5X5X5X5X5X5X5X5X5X",
"5X5X5X5X5X5X5X5X5X>Xf s <.7.r.r.r.7.7.<.:.1 1 1 < O < 2 2 2 < : X X X o + : o O i 7.s.s.s.u.9.9.9.r.7.7.3 a -X5X5X5X5X5X5X5X5X5X",
"5X5X5X5X5X5X5X5X5X5X*Xk 3 7.r.r.7.7.,.3 o o = : > 6 > < < < < = X X .   q @   # 9 7.s.s.u.u.r.r.7.7.7.6.f %X5X5X5X5X5X5X5X5X5X5X",
"5X5X5X5X5X5X5X5X5X5X5X%Xa s 5.5.5.5.1 ; . . ; : 9 e e < < < < ; = = X   w w w w + 5.7.7.7.7.7.7.7.7.7.5.$X5X5X5X5X5X5X5X5X5X5X5X",
"5X5X5X5X5X5X5X5X5X5X5X,Xf 7 7 o 2 2 : : ; X ; ; = > > < < < e + = = X   w r * + o + 9 : : 2 1 :.,.,.3 k ;X5X5X5X5X5X5X5X5X5X5X5X",
"5X5X5X5X5X5X5X5X5X5X5X5X%Xp . = 2 2 < : < ; . 6 + = < 2 < < e q ; = O * * * @ X o 6 q ; = = : < : = u $X2X5X5X5X5X5X5X5X5X5X5X5X",
"5X5X5X5X5X5X5X5X5X5X5X5X5X%Xf ; ; ; ; ; ; > 6 q $ @ > : < > e e + > Y T I * + o   q q + ; o X ; ; X a ;X5X5X5X5X5X5X5X5X5X5X5X5X",
"5X5X5X5X5X5X5X5X5X5X5X5X5X5X%Xf 8 8 8 8 8 9 6 # * * & @ > b W W b e ` ` W b l O # #   9 9 9 7 8 8 a %X5X5X5X5X5X5X5X5X5X5X5X5X5X",
"5X5X5X5X5X5X5X5X5X5X5X5X5X5X5X-X-X*X-X-X$Xp 8 0 r * * * @ Y ) _ ` Q ] ` E Y $ $ #   7 8 8 8 p $X-X-X5X5X5X5X5X5X5X5X5X5X5X5X5X5X",
"5X5X5X5X5X5X5X5X5X5X5X5X5X5X5X5X5X5X5X5X5X-X-X-X%Xh $ r Y E W Q _ ` ` _ R Y b y $ p #X-X*X-X-X4X5X5X5X5X5X5X5X5X5X5X5X5X5X5X5X5X",
"5X5X5X5X5X5X5X5X5X5X5X5X5X5X5X5X5X5X5X5X5X5X5X5X5X%Xh r Y W ) ) ` ` ! W R Y Y t d $X5X5X5X5X5X5X5X5X5X5X5X5X5X5X5X5X5X5X5X5X5X5X",
"5X5X5X5X5X5X5X5X5X5X5X5X5X5X5X5X5X5X5X5X5X5X5X5X5X5X%Xh t R W ) ` ) W R Y b t d $X2X5X7X5X5X5X5X5X5X5X5X5X5X5X5X5X5X5X5X5X5X5X5X",
"5X5X5X5X7X7X5X5X5X5X5X5X5X5X5X5X5X5X5X5X5X5X5X5X5X5X5X&Xe Y W W ) W R Y b 0 g %X2X5X5X5X5X5X5X5X5X5X5X5X5X5X5X5X5X5X5X5X5X5X5X5X",
"5X5X5X5X5X5X5X5X5X5X5X5X5X5X5X5X5X5X5X5X5X7X5X5X5X5X5X;Xd Q ` W W R Y y d $X;X5X5X5X5X5X5X5X5X5X5X5X5X5X5X5X5X5X5X5X5X5X5X5X5X5X",
"5X5X5X5X5X5X5X5X5X5X5X5X5X5X5X5X5X5X5X5X5X5X5X5X5X5X5X;Xd ` ' Q W Y t d %X5X5X5X5X5X5X5X5X5X5X5X5X5X5X5X5X5X5X5X5X5X5X5X5X5X5X5X",
"5X5X5X5X5X5X5X5X5X5X5X5X5X5X5X5X5X5X5X5X5X5X5X5X5X5X5X;Xd [ ' Q W y 0 $X5X5X5X5X5X5X5X5X5X5X5X5X5X5X5X5X5X5X5X5X5X5X5X5X5X5X5X5X",
"5X5X5X5X5X5X5X5X5X5X5X5X5X5X5X5X5X5X5X5X5X5X5X5X5X5X5X*Xv [ ' Q Y t 0 -X5X5X5X5X5X5X5X5X5X5X5X5X5X5X5X5X5X5X5X5X5X5X5X5X5X5X5X5X",
"5X5X5X5X5X5X5X5X5X5X5X5X5X5X5X5X4X5X5X5X5X5X5X5X5X5X>Xk ` /.' Q Y t 0 -X5X5X5X5X5X5X5X5X5X5X5X5X5X5X4X5X5X5X5X5X5X5X5X5X5X5X5X5X",
"5X5X5X5X5X5X5X5X5X5X5X2X>X1X>X:Xb.:X5X5X5X5X5X5X5X5X%Xv ] /.' Q D t 0 -X5X5X5X5X5X5X5X5X5X5X>X1X>X:Xb.:X5X5X5X5X5X5X5X5X5X5X5X5X",
"5X5X5X5X5X5X5X5X5X5X5X>XB $Xk x.v.b.4X5X5X5X5X5X5X>Xk ] ^./.' Q Y t 0 %X5X5X5X5X5X5X5X5X5X,X3.$Xk v.v.b.<X5X5X5X5X5X5X5X5X5X5X5X",
"5X5X5X5X5X5X5X5X5X5X5X<Xj.x.u 4.j.=X4X5X5X5X5X5X5X*Xv [ /.[ ( Q E Y e d %X5X5X5X5X5X5X5X5X<Xj.x.u 4.j.=X4X5X5X5X5X5X5X5X5X5X7X5X",
"5X5X5X5X5X5X5X5X5X5X5X*Xk i 7 i h *X5X5X5X5X5X5X*XM [ { [ ' ( ~ Q E D e h ;X5X5X5X5X5X5X5X*Xk i 7 i h *X5X5X5X5X5X5X5X5X5X5X5X5X",
":X:X:X<X:X:X:X:X:X<X&XN [.'.z '.`.n &X:X:X<X<X*XM ] ^./.[ ( ( ( ! T y r e $X,X<X:X:X:X<X&XN [.'.z '.`.n &X<X:X:X:X:X:X:X:X:X:X:X",
"c.c.c.c.c.c.c.c.c.h.U [.|.|.{.].#.J I h.c.c.h.h ` ^.{ [ ' ( ( ( E Y Y t t 0 a h.c.c.c.h.U [.|.|.{.].#.K I h.c.c.c.c.c.c.c.c.c.c.",
"+X+X+X+X+X+X+X+X+X~.A {.|._.}.].+.} C ~.@X+XQ.l ! ( ' [ ' ( ( ~ E Y Y Y y e & ~.+X+X+X~.A {.|._.}.].+.} C ~.+X+X+X+X+X+X+X+X+X+X",
"!.!.T.T.T.T.T.!.!.Y.Z ].}.].*.%.+.} C Y. XT.x b Y Y Y T T Y Y Y Y Y D y y t r z Y. X XY.Z %.}.].*.%.+.} C Y.!.!.!.T.T.T.!.!.!.T.",
"N.N.N.N.N.N.N.N.N.m.Z ..#.#.@.@.O.} Z M.V.M.4 % & & & & & & & & & & $ $ $ & & 4 m.B.B.M.Z ..#.#.@.@.O.} C m.N.N.N.N.N.Y.N.N.N.N.",
"N.N.N.N.Y.N.N.N.N.N.A.S } | | | } F C.N.V.B.F.i.q.q.q.q.q.q.q.q.q.q.q.q.q.q.i.F.Y.B.B.B.C.S } | | | } F C.M.N.N.Y.N.Y.R.B.N.N.N.",
"N.N.N.Y.Y.N.N.N.N.N.F.5 V V V V V 5 i.N.B.B.B.B.B.N.N.B.B.B.N.N.Y.Y.N.N.N.N.B.B.B.T.B.B.a.5 V V V V V 5 i.M.N.N.U.Y.Y.N.B.B.B.B.",
"N.N.N.Y.K.M.N.N.N.N.N.A.i.i.i.i.i.i.m.B.B.V.V.V.V.V.V.V.V.V.B.B.Y.B.B.V.V.B.B.N.Y.Y.B.B.M.A.i.i.i.i.i.i.m.N.N.N.Y.Y.Y.Y.B.B.B.B.",
"N.N.N.N.N.N.N.N.B.B.B.B.B.B.B.B.B.N.B.B.!.B.B.B.B.V.V.V.V.B.V.B.B.B.B.B.B.B.B.B.B.B.B.B.B.B.B.B.B.B.B.B.B.N.N.Y.B.B.B.B.B.B.B.B.",
"m.m.m.m.m.m.m.K.N.B.N.B.B.N.B.B.B.B.B.N.T.N.Y.B.B.B.B.B.B.B.B.B.B.N.Y.Y.N.B.B.B.B.B.B.B.B.B.B.B.B.B.B.B.B.N.M.M.N.N.N.N.N.N.N.N.",
"u.u.u.u.u.u.u.u.u.u.u.u.1.u.u.u.M.N.M.u.u.u.u.u.u.u.u.u.1.u.u.u.u.u.u.u.u.u.M.M.K.p.u.u.u.1.1.1.u.u.u.u.u.u.u.u.u.u.u.u.u.u.1.1.",
"7.7.7.7.7.7.7.7.7.7.7.7.7.7.7.7.u.n.u.7.7.7.7.7.7.7.7.7.6.7.7.7.7.7.7.7.7.7.u.n.u.7.7.7.7.7.7.7.7.7.7.7.7.7.7.7.7.7.7.7.7.7.7.7."
};
