/* XPM */
static char * ekko_end_petit_xpm[] = {
"12 12 142 2",
"  	c #1E2429",
". 	c #232930",
"+ 	c #303C4B",
"@ 	c #333F52",
"# 	c #333F4F",
"$ 	c #35404D",
"% 	c #37424D",
"& 	c #38424C",
"* 	c #36414B",
"= 	c #37414A",
"- 	c #36414A",
"; 	c #22272D",
"> 	c #252C33",
", 	c #354250",
"' 	c #354454",
") 	c #364452",
"! 	c #384451",
"~ 	c #3A444F",
"{ 	c #3D464F",
"] 	c #3F464E",
"^ 	c #3E454B",
"/ 	c #3A4047",
"( 	c #3B4146",
"_ 	c #21262B",
": 	c #262C33",
"< 	c #384453",
"[ 	c #3A4754",
"} 	c #38424D",
"| 	c #3C424C",
"1 	c #3F4850",
"2 	c #424950",
"3 	c #474C50",
"4 	c #494C4C",
"5 	c #404343",
"6 	c #3C3F3F",
"7 	c #212527",
"8 	c #23282E",
"9 	c #3A444C",
"0 	c #3E4A54",
"a 	c #3B424A",
"b 	c #3C4248",
"c 	c #434B51",
"d 	c #484F52",
"e 	c #494D4F",
"f 	c #4A4C4A",
"g 	c #494744",
"h 	c #3A3A3A",
"i 	c #23272C",
"j 	c #24292E",
"k 	c #383E42",
"l 	c #495255",
"m 	c #3F4246",
"n 	c #444748",
"o 	c #485153",
"p 	c #3C4043",
"q 	c #3F4244",
"r 	c #3A3A38",
"s 	c #3F3933",
"t 	c #3B352F",
"u 	c #252A2F",
"v 	c #2B2E31",
"w 	c #353737",
"x 	c #3F4242",
"y 	c #423F3E",
"z 	c #3F3B39",
"A 	c #373635",
"B 	c #23151B",
"C 	c #2A1F26",
"D 	c #2C2B2A",
"E 	c #3C3329",
"F 	c #3F3328",
"G 	c #26292C",
"H 	c #2E2F2E",
"I 	c #343230",
"J 	c #3B3A35",
"K 	c #3F3A36",
"L 	c #4B423C",
"M 	c #383230",
"N 	c #171414",
"O 	c #121112",
"P 	c #161514",
"Q 	c #3A2F25",
"R 	c #483A2A",
"S 	c #373028",
"T 	c #3F372F",
"U 	c #4B4239",
"V 	c #474037",
"W 	c #544B41",
"X 	c #5B4F45",
"Y 	c #433930",
"Z 	c #14100F",
"` 	c #171212",
" .	c #201714",
"..	c #564133",
"+.	c #6C513D",
"@.	c #45372B",
"#.	c #4C3F33",
"$.	c #41362C",
"%.	c #3B3229",
"&.	c #3F3429",
"*.	c #4E4034",
"=.	c #2E251D",
"-.	c #1E1C1B",
";.	c #1B1414",
">.	c #271A17",
",.	c #5D4B3F",
"'.	c #4A382D",
").	c #3C342C",
"!.	c #4D4237",
"~.	c #463C31",
"{.	c #433D34",
"].	c #443C33",
"^.	c #40382F",
"/.	c #1C1A16",
"(.	c #141413",
"_.	c #100D0B",
":.	c #221C16",
"<.	c #40392F",
"[.	c #33302D",
"}.	c #292926",
"|.	c #3A352D",
"1.	c #343229",
"2.	c #31302B",
"3.	c #302F2A",
"4.	c #2A2924",
"5.	c #1D1D1B",
"6.	c #191B18",
"7.	c #181A18",
"8.	c #20201C",
"9.	c #2C2B26",
"0.	c #292A29",
"a.	c #1B1A18",
"b.	c #191B19",
"c.	c #1A1D1A",
"d.	c #1B1D1D",
"e.	c #1B1E1F",
"f.	c #1B1F1F",
"g.	c #1D1F1D",
"h.	c #1E1F1E",
"i.	c #1D1E1C",
"j.	c #1A1D1F",
"k.	c #1B1D1F",
"  . + @ @ # $ % & * = - ",
"; > , ' ) ! ~ { ] ^ / ( ",
"_ : < [ } | 1 2 3 4 5 6 ",
"7 8 9 0 a b c d e f g h ",
"i j k l m n o p q r s t ",
"u v w x y z A B C D E F ",
"G H I J K L M N O P Q R ",
"S T U V W X Y Z `  ...+.",
"@.#.$.%.&.*.=.-.;.>.,.'.",
").!.~.{.].^./.(._.:.<.[.",
"}.|.1.2.3.4.5.6.7.8.9.0.",
"a.b.c.d.e.f.g.h.i.d.j.k."};
