/* XPM */
static char *_43c496db0184398f2dbe0e7ce39e0429OY8QAUDmxy9oyet[] = {
/* columns rows colors chars-per-pixel */
"64 64 255 2 ",
"   c #0E0903",
".  c #130C03",
"X  c #180B06",
"o  c #0D1209",
"O  c #14130C",
"+  c #1B140D",
"@  c #1B1B0C",
"#  c #161508",
"$  c #0D141A",
"%  c #0C1716",
"&  c #1D1513",
"*  c #1C1B13",
"=  c #1A1B1B",
"-  c #151716",
";  c #160F11",
":  c #24140C",
">  c #231A0C",
",  c #291609",
"<  c #221613",
"1  c #241B14",
"2  c #2B1C15",
"3  c #241C1A",
"4  c #2B1D1B",
"5  c #281614",
"6  c #321E16",
"7  c #311E19",
"8  c #2A1206",
"9  c #1C2419",
"0  c #192211",
"q  c #28240E",
"w  c #2B2214",
"e  c #25221B",
"r  c #2C231B",
"t  c #242B1B",
"y  c #2B2C1C",
"u  c #262715",
"i  c #332214",
"p  c #34231C",
"a  c #39261D",
"s  c #332A1D",
"d  c #3C2A1C",
"f  c #372715",
"g  c #29321C",
"h  c #38371C",
"j  c #3B200F",
"k  c #151C24",
"l  c #0F1C24",
"z  c #2A1E20",
"x  c #0D2325",
"c  c #1A242B",
"v  c #17262A",
"b  c #192936",
"n  c #17303A",
"m  c #2D2422",
"M  c #2A2926",
"N  c #342523",
"B  c #3B2721",
"V  c #342A23",
"C  c #3C2B24",
"Z  c #352C29",
"A  c #3A2C29",
"S  c #302728",
"D  c #2A3524",
"F  c #343424",
"G  c #3C332B",
"H  c #373928",
"J  c #232D35",
"K  c #27343B",
"L  c #393936",
"P  c #332F30",
"I  c #422D1C",
"U  c #42321D",
"Y  c #422D26",
"T  c #432E29",
"R  c #462926",
"E  c #44332C",
"W  c #4A342C",
"Q  c #433B2C",
"!  c #493728",
"~  c #54392A",
"^  c #443B32",
"/  c #4C3B33",
"(  c #493733",
")  c #533C35",
"_  c #573D36",
"`  c #3C432C",
"'  c #3B4125",
"]  c #3D4434",
"[  c #48472C",
"{  c #58442D",
"}  c #444433",
"|  c #4B4434",
" . c #444B35",
".. c #4C4C35",
"X. c #4B443B",
"o. c #454C3A",
"O. c #4B4C3B",
"+. c #45443A",
"@. c #544434",
"#. c #5A4333",
"$. c #54433B",
"%. c #5B433C",
"&. c #524B3B",
"*. c #5D4B3B",
"=. c #574B34",
"-. c #4C533C",
";. c #495439",
":. c #52543E",
">. c #57573A",
",. c #4C502B",
"<. c #62453E",
"1. c #624C3C",
"2. c #644A37",
"3. c #64523D",
"4. c #69553D",
"5. c #76563B",
"6. c #67492C",
"7. c #5B603E",
"8. c #1B3447",
"9. c #173347",
"0. c #223B4C",
"q. c #273945",
"w. c #313D45",
"e. c #253E53",
"r. c #3B4447",
"t. c #28445A",
"y. c #354B5B",
"u. c #3D515A",
"i. c #2D4C63",
"p. c #2A4963",
"a. c #334D62",
"s. c #375468",
"d. c #35566E",
"f. c #474844",
"g. c #554D43",
"h. c #5B4C43",
"j. c #5B4744",
"k. c #4D5442",
"l. c #4E5A45",
"z. c #525543",
"x. c #5C5243",
"c. c #545B44",
"v. c #5B5C45",
"b. c #5C554A",
"n. c #555C4A",
"m. c #5B5E4A",
"M. c #555649",
"N. c #465358",
"B. c #565958",
"V. c #464D52",
"C. c #644B42",
"Z. c #694C45",
"A. c #664A44",
"S. c #655444",
"D. c #6B5344",
"F. c #6C5B44",
"G. c #6C544A",
"H. c #66594A",
"J. c #735949",
"K. c #675C54",
"L. c #755C52",
"P. c #566047",
"I. c #5B6145",
"U. c #5B634C",
"Y. c #5E684E",
"T. c #566149",
"R. c #5D6451",
"E. c #5E6953",
"W. c #63644D",
"Q. c #68664C",
"!. c #73624C",
"~. c #7C644B",
"^. c #76664C",
"/. c #646452",
"(. c #636B53",
"). c #6A6B54",
"_. c #646D59",
"`. c #6C6D5A",
"'. c #6A6456",
"]. c #7B6A54",
"[. c #7D6D5A",
"{. c #766856",
"}. c #6C745B",
"|. c #697457",
" X c #73745C",
".X c #737C5C",
"XX c #787458",
"oX c #465865",
"OX c #586267",
"+X c #4A6375",
"@X c #596973",
"#X c #786A64",
"$X c #6E7763",
"%X c #7B7464",
"&X c #787964",
"*X c #6C7375",
"=X c #805C3C",
"-X c #846D53",
";X c #846D5A",
":X c #876C58",
">X c #83735D",
",X c #8C755C",
"<X c #847459",
"1X c #937B5D",
"2X c #937659",
"3X c #826A4D",
"4X c #8C7562",
"5X c #847A64",
"6X c #8C7C64",
"7X c #877968",
"8X c #927C64",
"9X c #947D6A",
"0X c #967A66",
"qX c #877A74",
"wX c #9F7F70",
"eX c #825D42",
"rX c #75815D",
"tX c #7A855C",
"yX c #768156",
"uX c #7B8463",
"iX c #7E8964",
"pX c #7D8769",
"aX c #7F8671",
"sX c #82826C",
"dX c #8C846D",
"fX c #838B6B",
"gX c #828B66",
"hX c #938164",
"jX c #9B8465",
"kX c #94836B",
"lX c #9B846A",
"zX c #9B8B6C",
"xX c #97896B",
"cX c #8C8473",
"vX c #8A8974",
"bX c #9B8C74",
"nX c #9B8D7B",
"mX c #958876",
"MX c #899275",
"NX c #9B927C",
"BX c #989477",
"VX c #92906C",
"CX c #A3886C",
"ZX c #A58C76",
"AX c #A59479",
"SX c #94805D",
"DX c #6C7A83",
"FX c #798489",
"GX c #9D9281",
"HX c #9E9A88",
"JX c #8A939A",
"KX c #A89984",
"LX c #B19D8D",
"PX c #B2A58B",
"IX c #A7ACA5",
/* pixels */
":./.&Xv.).).(.sX&X).c./.&Xm.m.M.`.(.c.l.] _.c.R.z.^ 1 X < < + + < < & O - c K q.q.K b K K V.B.f.e 3 4 4 4 4 3 < 4 4 4 4 3 3 3 3 ",
"y v.&X&XvXsX Xv.uXW.(.U.`.aXm.`.`.$X`.o.` $XU.m._.z.G r < + * 1 + 1 3 = k c J n K q.J K J J r.f.M N m r 4 3 4 N 4 4 4 4 3 3 3 3 ",
"'.).W.`.&X).sX&X`. Xc.m./.&X`./.v.).&X}  .&X/./.%Xb.| Z < + 1 * + < 3 = k J J b q.n l J K c k = 3 3 r m r 4 4 4 4 r r 4 2 2 r r ",
"v.v. XvXvX).).W. XdXW.).`.`.%X'.&.H.sXO.c.}.m.'.'.X.^ G < @ e + * & = = c J K q.q.q.n oX*XoXK c M e 3 4 m r 4 2 p p p p p a a a ",
"H :.sX X`. XXXQ.&X`.sX'. X X/.%XQ.[.NXv.Q.}.v.'.g.Q / ^ r @ 1 O 3 & = M J K q.e.+X+Xy.oX@X*XFXJXN.f.P m 3 3 4 p p a a a d d d d ",
"H z.MXdXcXdXXX{.XX`.%X X%X'.`.5X5XbXbX>.Q.`.W.H.| / $.$.V @ * = = = M K w.q.q.t.0.y.y.a.oXN.oXoXOXOXB.w.S m r 2 p a d I I I I U ",
" X X&XsXNX5X{.XX>XdXXX5X7X'.5X5XxXAX<X*.!.Q.S.x.@./ $.$.G e * e = M P K q.w.e.e.a.a.i.s.oXs.oXu.oXOXOXB.V.f.P < V C Y ! ! ! ! ! ",
"cXdXQ.Q.dX].].F.dX6X>X[.{.%XH.[.AXzX4.3.[.S.@.@.@.W C E ^ Z 3 9 m P K J b q.t.0.e.8.8.y.a.s.+XoXy.oXoXoX@X*XB.S Z G E W ! ! ! ! ",
"nX5XcXQ.Q.6X6XF.3.=.F.F.].7X[.5XZX8X~.4.*.3.3.@.@./ E C Z G P P c k c b b q.t.t.y.e.i.t.t.y.y.+Xs.e.s.+XoX*XFXL L Z G / C i 2 2 ",
"HXdXmX>XkXxX6X].!.F.J.F.3.F.>XbXZX,X~.4.1.3.3.#.%._ W Y C Z Z M = l k b b 8.0.0.y.t.i.t.t.i.p.d.+Xt.0.y.u.@XFXB.f.L +.X.G w 1 2 ",
"NXvXdXdXPXbX~.!.J.-X,X].3.=.[.AXZX:XD.3.3.3.3.*.%.%.) T V y e 9 - $ k c b n 8.8.t.t.i.p.p.s.t.t.d.t.9.0.y.N.OXOXf.L +.X.G r w w ",
"mXdX].F.kX<X2.6.5.lXCX8XF.*.,XbXZX-X3.3.S.3.C.1._ _ ) T p 3 * o $ $ k b b b 8.8.t.t.i.p.i.d.t.9.t.t.8.0.oXu.N.OXf.L f.+.^ r N r ",
"dXdX3.f 4.!.4.{ J.ZXZX,X5.!.bXZXbX~.1.D.S.C.C.C.%._ ) T N e * o - $ k b b b 8.8.t.t.i.i.d.d.t.9.t.a.n b u.r.r.M.B.f.g.X.| s V 3 ",
"5XcX!.{ !.-X,XJ.~.CXlX3X~.8XAXbX4XJ.C.D.S.C.C.C.<.%.) E C r * o - $ k b b b 9.8.t.i.t.i.i.i.p.9.t.y.b c V.V.f.] M.O.b.X.X.s V 1 ",
"5XkXdX,X9X8XZX2X:X2X1X-X1XAXCX6XL.C.C.G.C.h.C.C.A.%.) T A V e O - $ l b b b 8.8.e.i.t.i.i.p.p.e.q.w.K L B.R././.} ^ b.&.&.s V 2 ",
"vXdXmXNXkX-XAXCXCX2X2X-X0XAXjX,X1.*.C.G.C.C.C.A.A.%.( T A Z e - = $ l c b b 8.8.e.i.t.i.i.t.i.t.w.r.L r.] +.b./.G ^ K.x.g.s Z r ",
"W.).mXmX>X-XlX1X2X1X2X2XjXzX,XJ.2._ %.G.G.%.) j.) N B < 3 ; 3 = $ $ $ c c b n 0.8.a.p.t.t.i.y.q.V.+.H F ^ b.%X'.'.Q b.b.x.^ y 1 ",
"v.'.mXbX6X-XlXjXjXCXjX,X1XkX-X=.~ W ) C.C.W 2 7 p 4 < 3 L Z 3 ; - $ $ v v v n 0.t.i.p.e.t.0.y.N.*X^ u &.{.qXqX7XqXh.r X.K.r V y ",
"W.).bXbXhX-X1X1X1XCXCXCXkX>X1.d i f Y %.C.E : X < < < m S S z m = $ % l v v n 8.9.8.t.t.y.q.N.*XqXs G H.#XH.x.K.'.%Xg.g.H.V F e ",
">XXXbXbXhX~.3X3X,X,XlXAX6X@.6 : : : 2 W h./ p 2 : X & < X . O   = % % % x x n 8.t.0.y.8.w.w.*XIXK.i {.{.{.a 5 2 2 H.mXg.^ X.V y ",
"xXhXxXzXzX-X3X~.,X,X,X[.$.: . : > : 1 C / G r 1 < + 1 r b./ m ; = % % % x x b n 0.0.oXK r.f.$XHXGXS.H.h.C 6 i $.$.h.KX'.X.g.Z G ",
"zXhXjXjXZX1X,X-X~.-X!.) 2 : < 1 1 1 2 V Q G r 3 2 ^ N 3 qXb.< e 3 - o % x x b n q.u.DXOX*XvXvXmXmX].*.4X! W 8 *.7XqXLXmXK.g.g.+.",
"hXhXjXhXCX1X-X~.4.F.%.p : 4 m < < 2 r C E E Z Z h.#Xh.Z '.^ X Z m * o o % x b K K r.N.P g.7XhXzX8X<X#.6X#.#., S.H.cXGXGX%Xg.K.g.",
"SXhXjX1XjX-XJ.2.F.*.a X X 3 3 ; < 2 r p E E E / W / E C C a B / Z 3 O o % 9 b K w.L L < T ,X2XjXjX8X2.;X;X!.@.G.[.nXnXcXqXh.g.g.",
"hXjXhX1X,X~.4.4.1.a   p G S f.j.: W T B W ( W ( ) ) / W / _ _ _ E ; 3 O O M L P P f.f.A.~.5.6.2X0X8XF.:X-X<XD.].mXnXGXcXcX{.E $.",
"1X1X8XjX6XF.=.S.i X B K.S S qXqXT j._ W _ _ <.%.%.C.G.G.C.C.Z.Z.E 4   1 r +.P g.#XK.H.L.2.5.=X5.2XlXlX-X8X9XlXxXNXnXmXcXmX%X| | ",
"kXlX,X~.~.!.@.d 8 X h.mXj./ #Xj.W <.%._ _ %.Z.<._ C.J.J.Z.<.<.C.T N   r X.b.^ %X#X#X[.L.J.5.eX5.5.,XZX,XkX6XbXxXbXbXNXNXGX7X*.| ",
"~ >XbX7X!.*.d : i 2 7 E T N A 5 _ Z.Z.Z.%.A.L.Z._ %.<.Z.G.G.<.) A 4 2 1 H.h.H.qXL._ 6 X 8 6.5.CX~.,XlXCXlX6X6XxXbXbXnXNXNXkXF.@.",
"X f @.S.@.i : a / $.C B ( E ( %.C.J.G.Z.%.<.L.J.<.%._ <.G.J.C.) Z ; r X h.x.[.7X%.6 Y W , 9XJ.~.lX8X8XkXkXhXxXbXbXbXkXkXnXbX[.#.",
"2 X   . + X : C Y / j.j.j.%.C.C.C.J.<._ _ 1.L.{.G.C.%.#.1.C.%.( Z ; O + Q !.>X].f a L.6 d {.L.!.kX,XhX<XbXAXAX5X>XAXAXbXbXbX>X1.",
"< r 4 + X X < p / / %.C.C.D.D.C.G.L.<.#.C.G.{.].L.*.W W %.S.%.E M =   > s !.].>Xj #.qXi x.h.{.cX6XkXbXkXAXPXKX!.XXKXbX<X6XxX6X4.",
"3 + X & 1 + : N C / ) %.G.G.*.D.G.L.#.~ S.S.*.%.) 6 X : / G.%.C & = O + p *.F.6X=.F.].{.{.%XcXGXkXbXkXbXhXPXkX3.bXLXF.U F.lX9X4.",
"* * + # + + < p p Z ^ X.%.C.Z.Z.J.D.%.W 6 : 2 Y 2 6 C W %.G.C.C m   3 X < h.H.6XAXAXAXzXxXmXnXGXNXnXmX7X{.3.1.;XZXD.I j :X0X4XJ.",
"* * # # < 3 2 r r V G ( ) %.C.Z.Z.L.1.d p Y T 4 C ( %.j.j.A._ C < * S & < ^ h.].xXzXzXzXzXbXnXnXmXvXNX7X[.mXZXZX_ ~ 3X#.L.9X;XD.",
"* @ . + r V p 4 r r V C W ) A.Z.Z.L.L.C.$.$.j.$.$.) _ %.j.A.) p > V G m & N $.H.6XxXzXxXxXbXNXnXGXNXLXKXKXLX8X~ 2.:XJ.~ 4X4X:XD.",
"@ @ . + N G V p N p p B Y W _ A.<.Z.G.L.A.$.) j.( C p a Y ) W p 1 G G V < X E *.].6XzXhXhXxXnXNXmXNXnXAXKXF.! ,X0XwX~ _ lX;X;X4.",
"@ @ O O N G A C C N p B B R W _ Z.Z.A.C.%.) C 5 2 < : 5 : 2 a a w } G G 4   2 C S.[.kXkX6XkXbXbXLX6XAXkX{ 3.8X0X:X~ 4.:X4X8X;X{ ",
"O * # O p E T T C N p B B R R W Z.1.C.C.) p 2 7 p 4 7 p 2 2 6 2 w | Q } G + + : W S.>XkXxXxXbXbX6XNX[.f I J.4.~ D.6.L.0X8X4X;X~ ",
"O @ O O N E E C B p p C Y R R W / ~ _ %.a X 5 ) ) E E E G N 2 + q [ &...&.E r 1 p E S.>XkXxXxXbXAXxX>XF.D.D.D.:X-X0X-X8XZX4X].{ ",
"O O . X N ( T B 7 2 p C Y B R R W %.%.Y 2 2 E $.$.$.$.$.Z 1 : > # [ &.[ &.x.Q N : 2 T S.;X7X9XxXbX6XbXbX9X9X4X,X,XJ.CXZXbXZX4.{ ",
"*   O X p a T p a 2 2 C C C T B T T Y Y Y E ) %.$./ C r 2 1 < + > q :.| | &.x.X.V 2 : i @.[.6X>X>XbX6X6X9X4X9X;X8X8XLXlX9XkX=.~ ",
"O   X X C W W i 8 X i E *.C Y C B C C C a p p B : : 1 1 < < < 1 > q =...| &.x.X.^ ^ G w 2 U 4.[.5X6X5X].].>X4X6X4X8X4X9XKX;X! { ",
". + X . p d d d ! ! x.H.%XE p C p B C B p 6 6 6 E / / ^ V 1 & + > q &...[ ..x.&.^ | O.O.Q h h [ S.S.[.>X>X7X{.>X4XxX9X6X{.d d 1.",
"O + . > ) 1.D.[.>X5XdX&XvX| > V N N N p p a C Y / $.j./ A 4 < & > q &...[ ..>.:.O.+.X.M.v.&.[ [ h f H | @.H.H.{.Q.S.F.S.U I 1.*.",
"@ .   C ;X9X>XxX6X5X%X XsX/.y w r p 4 2 6 p C Y C C C N 4 1 < < : 1 &...,.,.>.>.-.o.O.M.m.c.c.W.Q.:.F Q w s s w w : f i , ~ 1.~ ",
"  . > x.6X6X^.<X5X).Q.).&XsX` @ r r r r r p p p Y C p 4 < < < < 1 3 &.&.,.,.>.I.o. .k.U./.m.c.v.v.m.| W.O...Q > w d d d %.L.D.{.",
"  1 | [.4X,X<XhXXX>.|. XuXMX(.F y r r r p p p 6 p 2 2 < < < 3 3 z r g.>.=.,.>.I.c.-.o.k.n.U.c.c./.m.:.W.+.:.Q q s | C ! {.4X{.!.",
"s | S.>X~.<X].<X>.h .X.XuXfXaXU.t u r r r p p p 2 6 2 2 < < < 3 m m h.x.>.,.7.W.;.-.c.U.U.U.U.U.W.c.m.R.H M.F @ Q dXcXmX%XQ.%XS.",
"F.1.J.].].>X^.4.[ h .X.XuXiXpXMX(.` q # F p p N B p 4 4 2 1 4 m 4 G / r &.v.>.).:.c.c.c.U.U.c.c.c._.z.z.k.o.t q (.&XfXfXfXfX.XW.",
"J.2.J.!.F.3.{ =.).h 7.MX.XrXiXpXMXMX/.F u < r C A N 7 4 4 4 N A G ^ X.> @ | /.).v.v.v.I.W.W.U.Y.c.R.z.k.k.+.0 g .XiXgXtXiXfXfXrX",
"3.=.S.3.*.! h [  Xh h BXrXrXrXuXuXMX).z.} V r 4 N N N N 4 4 N G Z X.^ .   ../.`.I.I.I.U./.(.W.Y.c.R.n.k.k.] 0  .fXgXtXtXtXiXfXfX",
"@.@.*.@.| h f [  XI.g .XiXpX.XuXuX|.H z.z.G s V N N N Z N p N A G b.u   y c.c. XI.v.I.Y.Y.Y.Y.U.c.Y.U.k.n.] 0 Y.fXuXtXtXtXtXuXiX",
"Q | | F F h u h vX&X' W.iXiXuXuXMXU.F U./.O.V V N V Z Z Z N Z G X.+.. # } m.:.`.v.c.I.Y.U.U.U.c.c.(.R.k.n.H g .XfXuXtXgXgXuXuXuX",
"F H H u y h u y }.:.H W.uX.XfX.XpX` y z.(.`.X.e Z V V V Z Z A G L @ . H :.m.W.c.I.z.Y.Y.c.T.(.U.P.(.U.k.c.g ' uXiXtXtXtXiXiXiXgX",
"F t D t u g y y } ' h v..XuXfXiX.X@ # 0 F b.z.G V M r V Z V N V * # F m.m.c.`.-.Y.c.Y.E.l.T._._.P.|.n.z.k.u -.pXrXtXrXyXtXuXiXiX",
"H t D D t t t g ] Y.` [ ).iXuXBXW.  u 0 . u F F y y M Z Z m < O * ] M.m.U.-.(.U.Y.c.Y.Y.-.T.$X$XU.|.c.c.k.u U.fXrXtXtXtXtXiXiXrX",
"D D t D t t H o.Y.U.Y.;. XMXgX)...-. .F u @ @ @ @ e M V Z e O V $X_.n.k.}.-.(.c.c.Y.U.U._.}._.E.I.(.Y.Y.H g $XuX.XtXiXtXtXiXiXuX",
"9 D D D D D o.E.E.R.(.Y..X.XY.-.U.W.`.W.z. .H y u u y M V * & +./.R.U.k.(.z.Y.P.P.(.Y.U.U.U.c.z.I.|.U.Y.H H $X&X|..XtXtXtXuXuX.X",
"D D D D ` l.E._.(.U.U.Y.Y.Y.-.c.c.:.(.(./._.U.U.R.} e O * O O L M.c.(.k.(.c.c.U.z.(.(.U.U.n.c.c.c.|.c.U.F ] &X.X)..XrXrX.X.X}.|.",
"D H H D o.E.}.E.(.P.l.P.;.U.c.Y.Y.-.U.c.-.Y.c.c.(.O.t   @ * * L z.k._.-.U.U.-.U.-.U.R.U.n.n.n.U.c.|.k.n.D o.&X(.(.|..X.X|.(.(.).",
"D ]  .]  .c.R.Y.Y.T.T.Y.-.E.c.-.(.:.U.U.z.P.-. . .k.l.F * O O M z.k.(.o.z.U.-.m.-.v.m.z.z.z.k.-.z.(.-.c.D k.$XU.Y.(.|.(.I.I.W.|.",
"} ] } `  .-.c.c.U.T.E.U.-.E.P. .U.O.z.Y.z.P.Y.;.;.n._.] @ O O O +.-.R.o.-.U.-.c...z.z...-.k.-.-.-.Y.o.k.F o._.k.U.W.W.7.:.P.(.(.",
"`.z.` `  .o.-.c.U.-.Y.l.;.T.U.;.(.c.-.U.-.o.Y. .;.] n.] @ e Z * y } m.-...c.-.z. .:.:...O.z.z.z.o.c.o.o.F ] _. .c.I.>.;.-.Y.(.Y.",
"sX(.:.o.` H o.(.c. .E.l.;.-.T. .m.z. ./.-. .(. .;.` R.k.@ * M * # H c.-...:.-.:. .z.:. .o.O.k.z. .k.o.o.H H R.] c.I.-.[ -.(._.n."
};
