/* XPM */
static char *e190e8efeef44688b30b5f234dcbf366s1D506KzdWbOhaRI[] = {
/* columns rows colors chars-per-pixel */
"64 64 221 2 ",
"   c #0C0504",
".  c #0E0A06",
"X  c #0E0B0A",
"o  c #060100",
"O  c #140405",
"+  c #190406",
"@  c #110907",
"#  c #16060A",
"$  c #1B050A",
"%  c #120D0C",
"&  c #1C0A0C",
"*  c #1F0E07",
"=  c #0F100A",
"-  c #14110E",
";  c #19120E",
":  c #1A180C",
">  c #0E0F11",
",  c #130E12",
"<  c #1B0F10",
"1  c #161212",
"2  c #1C1513",
"3  c #161B14",
"4  c #1C1916",
"5  c #161618",
"6  c #1B171A",
"7  c #1D1B1B",
"8  c #17181A",
"9  c #210B0E",
"0  c #21070C",
"q  c #23130D",
"w  c #230D12",
"e  c #2A0E14",
"r  c #300F16",
"t  c #231314",
"y  c #2A1116",
"u  c #211916",
"i  c #2C1C14",
"p  c #231618",
"a  c #2B1319",
"s  c #231C1B",
"d  c #2A1C1C",
"f  c #311F1B",
"g  c #311A1A",
"h  c #1C211D",
"j  c #24221E",
"k  c #2B231D",
"l  c #2C291E",
"z  c #262217",
"x  c #32231C",
"c  c #3B241D",
"v  c #38281B",
"b  c #1E1E20",
"n  c #221F20",
"m  c #281F22",
"M  c #1D2422",
"N  c #1F2925",
"B  c #242323",
"V  c #2B2423",
"C  c #242925",
"Z  c #2C2A24",
"A  c #262628",
"S  c #2A2629",
"D  c #252A2A",
"F  c #2B2C2B",
"G  c #342622",
"H  c #3A2623",
"J  c #332A25",
"K  c #3B2B25",
"L  c #332D2A",
"P  c #3B2E2A",
"I  c #2D302D",
"U  c #2E3026",
"Y  c #353325",
"T  c #34332C",
"R  c #3B322C",
"E  c #3C3A2B",
"W  c #3D3625",
"Q  c #2E2E30",
"!  c #302E31",
"~  c #382F30",
"^  c #2E3232",
"/  c #323434",
"(  c #3B3532",
")  c #353935",
"_  c #3B3B34",
"`  c #343639",
"'  c #353A3A",
"]  c #3B3D3C",
"[  c #422419",
"{  c #552C1B",
"}  c #412621",
"|  c #422C25",
" . c #4A2A25",
".. c #432D29",
"X. c #4D2D2B",
"o. c #44322B",
"O. c #4B352C",
"+. c #423D2C",
"@. c #4A3525",
"#. c #53322B",
"$. c #57382B",
"%. c #433430",
"&. c #4C3732",
"*. c #423C34",
"=. c #4B3A33",
"-. c #433C3A",
";. c #4C3D38",
":. c #523533",
">. c #543C33",
",. c #533E38",
"<. c #5A3935",
"1. c #502D2B",
"2. c #603B34",
"3. c #6D3E3A",
"4. c #653937",
"5. c #643927",
"6. c #3F423B",
"7. c #3F4032",
"8. c #47422B",
"9. c #4B4628",
"0. c #5E422D",
"q. c #444234",
"w. c #4A4533",
"e. c #4B4934",
"r. c #44433C",
"t. c #4A443B",
"y. c #474938",
"u. c #4C4A3C",
"i. c #524B3E",
"p. c #57443B",
"a. c #5A5A33",
"s. c #54523A",
"d. c #5E593D",
"f. c #5A572E",
"g. c #69442C",
"h. c #73472F",
"j. c #65423E",
"k. c #6B4C3C",
"l. c #694837",
"z. c #744A34",
"x. c #61533C",
"c. c #67573A",
"v. c #78573C",
"b. c #676137",
"n. c #786A38",
"m. c #3B3F41",
"M. c #373C40",
"N. c #3D4243",
"B. c #424545",
"V. c #444944",
"C. c #4C4B44",
"Z. c #454A4A",
"A. c #4A4E4C",
"S. c #484746",
"D. c #5A4641",
"F. c #524E44",
"G. c #5E4842",
"H. c #554A46",
"J. c #4E514A",
"K. c #545344",
"L. c #5A5644",
"P. c #5C5A44",
"I. c #54544A",
"U. c #59554A",
"Y. c #575A4C",
"T. c #5C5A4E",
"R. c #4B4F51",
"E. c #4D5252",
"W. c #4F5458",
"Q. c #535554",
"!. c #555854",
"~. c #5C5A53",
"^. c #555A5A",
"/. c #575957",
"(. c #655847",
"). c #785A42",
"_. c #615F52",
"`. c #685D56",
"'. c #6B5651",
"]. c #5F655B",
"[. c #63614C",
"{. c #6A6448",
"}. c #726C4C",
"|. c #776445",
" X c #787646",
".X c #6B6955",
"XX c #69645B",
"oX c #6C6A5D",
"OX c #676457",
"+X c #726D57",
"@X c #777153",
"#X c #7A7557",
"$X c #6C6965",
"%X c #777462",
"&X c #825439",
"*X c #816F3F",
"=X c #81783C",
"-X c #895B40",
";X c #925F42",
":X c #866549",
">X c #946748",
",X c #897849",
"<X c #837C57",
"1X c #97735A",
"2X c #847D63",
"3X c #8D834B",
"4X c #8B8344",
"5X c #928C4D",
"6X c #86815B",
"7X c #89845A",
"8X c #978C54",
"9X c #958E5A",
"0X c #9B9358",
"qX c #A1965D",
"wX c #A1985F",
"eX c #948C64",
"rX c #9A9368",
"tX c #A49E7E",
"yX c #ACA26A",
"uX c #ACA374",
"iX c #B5AA77",
/* pixels */
"P..Xu.E I.].V.D D N.' D D ' Z.D I D D N ) N.F D D A D F Q D A D B C D C M 7 B D ^ ^ ^ ^ / / I I F F F F F D D D A A A A A D D D ",
".X[.u.q.Y.!.) h ' Z.^ D ) ' ` M D N N M ) N.Q D b M F Q F B B A 8 B C C B B C D ^ ^ I I F F F F F F F F D D S D B B B B B B B B ",
".XK.u.Y.Y._ C C Z.Z.^ ^ N.' F D M M M M ' Z.^ D 7 M A Q F A B B 7 B F F F D F F I I F F F F F F F D D A A A A A B B B b b b b 7 ",
"i.q.K.OXr.7 B B.A.' ^ ' m.) ^ ) D M M N N.Q.' D B b M D / / S b C D I / / ^ ^ ^ F F F F D D D D D A A C B B C B B B B B b b b b ",
"E F._.I.F j ) Z.] D ] A.) F ) ) D M M M Z.^.] C 7 8 7 B A F S B F F F F F F F F F F F D D D C C A C C B B B B B C B B B B b 7 7 ",
"*.XXXXT j ] V./ D C Z.E.I I ) ^ D M M M B.^.' M > 5 8 8 8 7 A F / ^ F F F F F F D D D D C C C C C C B B B B B B B B B b b 7 7 8 ",
"~.$XJ.V T S.] C B ) E.] I ' ) ] D D D D N.^.' M > 1 5 1 6 B F ! Q F D D Z F F D V V D C C C C C C B B B n n n n n s s 7 7 7 8 8 ",
"$X~.( Z r.r.F T C A.A.C ^ B.' A.D ^ ` ^ Z.^.] D 8 1 X > B / / F C B B B V D S C C C C C C C C C B B B B n n n n 7 7 7 7 7 7 8 8 ",
"XXC.Z C.C.-.( Z _ $X) B Z.) I ^.^ Z.N.^ m.Z./ / 1 5 5 7 B F F B 8 B C D C B B C C C C C C C B B C B n n B B B B 7 7 7 8 6 5 5 5 ",
"_.*.T ~.t._ E Z I.~.F B ' I ) ^.' E.Z.^ m.A./ D 1 5 8 b B B n 6 s C D D C C C C B B B B C C B B V B B B B B 7 7 7 7 7 8 6 5 5 5 ",
"~.E *.T.*.Y Y _ oXC.C F I C N.^.N.W.R.) m.R./ B 5 8 b 8 6 6 6 6 S V S D S C B B B B B B B B B B B B B d j s 7 4 7 7 7 5 5 2 5 2 ",
"_.q.y.q.E R Y U.oXu.U I U F N.^.N.W.E.) ] E.] D 8 7 8 5 , 5 s B D S C C V V C B B B B n n s s s s s s s s s 7 7 7 7 5 5 2 2 2 2 ",
"T.L.u.Y w.w.+.oXU.K.6.T ) ^ ' ^.B.E.E.) ` A.B.! 6 5 5 , , 5 n F V B B B C C B B B B n 7 7 7 7 7 s s 7 7 4 4 4 7 4 2 5 2 1 1 1 1 ",
"K.L.e.E P.u.e.%Xu.U.C.T _ / I !.Z.E.E.' Q m.] / 5 , , , 5 6 n B B n 7 n B B B n n n 7 7 8 8 8 8 7 7 7 4 5 2 2 5 5 5 2 1 1 1 1 1 ",
"K.e.w.K..Xe.P.%XK.L.K._ T I D E.B.A.Q.] F / / / 7 1 X , 6 7 s n s s s s n n s 7 7 7 7 6 8 8 7 7 5 5 7 7 5 2 1 1 5 2 2 1 - 1 1 1 ",
"[.8.e.@X@X9.@X2X[.K.I.6.F F F J.B.Z.^.N.A F F / D 8 % % 6 7 s s s s n s s s s 7 7 7 6 5 6 7 7 s % 1 4 7 7 5 2 2 2 2 1 - 1 1 1 1 ",
"s.9.|.<Xn.b.<X6X[.OXV.6.F C.t.t.Q.N.^.' ' F ` A ) 7 X 1 7 4 2 5 2 4 7 s s s s u 2 4 2 2 2 4 s d   - - 1 7 7 1 % 2 1 1 1 1 - % % ",
"{.}.eX8Xn.,XrXeXP.Y.V.V.T T.*.U.Q.M.W.' ^ A / B ! C 5 X % 1 2 2 2 2 2 2 u u u u s u u 2 2 2 2 4 X 1 2 2 7 s 2 1 1 1 1 1 1 - % % ",
"6XeXuX0X,XqXiXrXs.J.Z.B.F F.l F.!.` R.m./ D ) C B F B -   1 2 - ; 2 2 2 2 2 2 2 s u 2 2 u 2 2 % % 2 2 1 7 7 1 1 % % % % % % % % ",
"rX0XqXqXqXiXuX<Xq.C.A.' Z Y l i.!.^ Z.B.' ^ ] F 8 D S 5 % 2 2 % ; 2 2 2 2 2 2 2 u 2 2 2 u 2 % . X 1 1 - 5 5 - % % % % % % % % % ",
"0X5X8X0XyXiXrXd.+.I.A.I T l L..XC.D m.Z.] / ' ) 7 j j 5 1 1 2 1 2 2 2 2 2 2 2 2 u 2 2 2 2 2 @ o X 1 - % 5 5 % % % % % % % % % % ",
"=X5X0X5XwXuX6X9.u.~.S.F E +.2X#Xr.D ' A.Z.) / ] S j 1 - % % 1 4 2 2 2 2 2 2 2 2 u 2 2 2 2 %   o % 2 1 1 5 5 % % % % % % % % % % ",
"=X4X5X3X9XeX}.E C.~.S.*.q.@XeXc._ F ' J.A.) C ] ) S 5 % X % 1 5 2 2 2 2 u u t 2 u u t 2 2 ; % % % 5 5 2 7 4 % % % % % % % % % % ",
"3X=Xn.3XeX<Xd.E u.F.C.K.s.tXeX9.Y F ) A.A.U 3 ) ) T B 1 % - 1 - 2 2 2 2 u u 2 2 2 u s u u u u s % 5 5 5 7 5 % X % % % % % % % % ",
"*X,X,X X6X#Xw.E U.t.E P.2XrX7Xf.E C r.r.C._ j 2 T ) / V 1 X , 7 2 2 2 2 2 u u 2 2 2 2 2 4 u d j 1 X 2 7 s s % % % % % % % % % % ",
",X:Xv.c.}.[.w.F.U.u.i.{.<X7X Xa.E U C.r.T j 3 - 4 L / s % 1 5 % 2 u s u 2 2 2 2 u 2 2 2 2 u s s % X 5 7 7 7 % % % % % % % % % % ",
"1X|.c.(..XL.q.T.I.F.P..X@X#X Xa.w.Y u.q.l 3 : . X s V 4 1 5 5 % 2 2 s d u 2 2 u u t 2 2 2 u s s % % 7 7 4 5 X % % % % % % % % % ",
"1X:X).(.(.u.*.!.K.i.L.(.(.{.b.a.P.7.u.u.l - : - - % - 5 7 7 7 7 5 2 2 u u 2 2 u u t 2 2 2 2 u 4 1 - 7 2 1 1 . % % % % % % % % % ",
"1X:Xk.O.K Y E I.F.*.t.w.e.P.s.s.[.u.K.T.R : : : ; X   1 B L ! L B u 2 2 u u t u 2 2 2 2 t t t 4 5 5 s 1 % % X 1 % % % % % % % % ",
":X).l.@.i z T C.K.R R R *.K.y.y._.F.*.L.K.*.l : - - % X s -.B.) Z d 2 2 s u 2 2 2 2 2 2 t t u 4 7 5 s 1 X % % 1 % % % % % % % % ",
"z.h.v.0.v l Z _ F.J J J _ C.) ) L.L.Y +.C.Y._ 4 - 2 1 % 7 / ] L V u 2 2 s 2 2 u 2 2 2 2 2 t 2 4 7 5 s 1 % 1 % % % % % % % % % % ",
"h.g.).(.+.l Z _ C.l J J ( S.F V t.oXt.Y J *.E L 2 - 1 5 7 s n V 2 ; ; 2 u 2 2 s 2 2 2 4 2 2 2 2 2 5 s 2 1 5 % X % % % % % % % % ",
"g.).x.w.E j h ] V.Z k ( t.( J Z u.XXq.z l l L ( V 4 2 d V s 7 7 2 2 2 2 2 2 2 2 2 2 2 u u 2 2 2 1 1 1 5 1 - % - - - 1 1 < , < < ",
"c.|.x.8.E C C 6.V.T l R *.R J L t.XXt.l Z k J ( ( V d V V d s s 2 2 2 2 2 2 2 2 2 2 u u u u 2 2 5 1 - 1 1 - - 1 1 1 1 1 2 2 2 2 ",
"v.|.x.+.R Z S 6.r.Y l J P P R R %._.t.J J k J *.-.( L V d d s p 2 2 2 2 2 2 2 2 2 u u u u u u 2 2 1 % % % % 1 5 1 1 2 2 2 2 t t ",
":X|.l.@.W l Z ( ( K x x H P o.o.o.i.t.R R P o.D.=.*.P V d d d u 2 2 2 2 2 2 2 2 u u u u u u u 4 7 1 % % X % 1 7 5 5 2 t t t t < ",
":X).l.$.o.J Z L J K K v K o.&.&.o.=.&.o.&.=.;.G.;.=.R G d d p 2 2 2 2 2 2 2 2 2 t u u s s u u 4 5 1 - % % % 1 5 5 6 s p p t w & ",
">X-Xk.0.O.K J J K o.o.| O.=.>.>.&.o.O.O.,.p.p.'.p.;.%.P G d t 2 t 2 2 2 2 2 2 2 u u u s s s u 4 5 1 - - % % 1 5 p p p p t w w & ",
">X&Xz.0.@.W K K o.o.@.@.>.>.>.>.>.| O.&.,.G.D.`.D.&...P K k p t 2 2 2 2 2 2 2 t u u s s s s s s 7 5 - % % % % 2 s p t w w w w e ",
">X&Xh.0.@.| o.K O.O.O.>.>.>.>.>.:.} O.&.,.G.G.XXp.o.H K K x d d 2 2 2 ; ; 2 2 t u u s s s s s s s 5 - % X % % 2 p t w & $ w e a ",
";X&Xg.$.#...K K o.=.>.O.>.>.>.O.} } } | O.,.D.G.o.c i f H H k p u 2 2 2 2 2 2 u u u u u s d p s 7 5 - % % % 2 t # & & & 0 w y a ",
"-Xz.g.$.#...K H K o.O.O.O.=.O.| g x H | ..o.o.o.i q * i H K G k t 2 2 2 2 2 2 u u 2 2 u u s s 4 7 5 - % % 2 < < & & & 0 e e y y ",
"-Xv.z.g.>.o.K J G K ..| o.O.o.G i x H K K H c f * O O t G K x d u u 2 2 2 2 2 2 2 2 2 2 u u u 2 2 1 , < 2 < & $ & $ & w a a y w ",
"&Xv.z.k.p.%.L G G J K K K K J x x J J J G G x x u q q d K K x p u u 2 2 2 2 2 2 2 2 2 2 u u 2 2 2 2 2 < & & $ + $ $ w w a a a w ",
"h.h.l.j.,.P V n V V l l x J J V Z Z V Z G J J J P J J K P P G d u u 2 2 2 2 2 2 2 2 2 u u u 2 2 2 2 2 & # O $ $ $ w w a a a a a ",
"5.5.2.<.&.L V B V k k z k V V V V V Z Z L P R R R R P J G G G k t 2 2 2 2 2 2 2 2 2 2 u u u 2 2 2 2 < # O O + & $ w y a a a a a ",
"{ { #.O.P V S S V B j j B B B B B B S F L T ( ( R ( L k t t d d 2 2 2 2 2 2 2 2 2 2 2 2 2 2 2 ; 2 & # # # $ $ $ w e w t a a d d ",
"[ [ c c d d V F V V V V Z V C B B B B B S L ( _ *.*.P d & & 2 p 2 2 2 2 2 2 2 2 2 2 2 2 2 2 ; % 2 # O O $ & $ + e w w e a a d d ",
"K x k d d d V V B V Z Z Z Z l j Z B M C D F F / L P J V l s 2 u 2 2 ; & 2 4 4 2 2 2 ; 2 ; 2 2 2 O O # # + & & 9 0 e a a g a a e ",
"J V k d d d k V k V Z Z Z Z l z j j h C D D D F ~ L d d l z : : 2 2 2 ; ; - - - 2 2 - ; & & % @ # # # # # + & 9 t t a a a a y e ",
"J G V k k k k j j V Z J J J l z k d s B B B B C V G V V J l : - 2 % % ; 2 % - 2 2 - % & & % @ @ # # + + + # 9 w y t w w w 0 0 0 ",
"J J J J J V V V V Z J J J J x x x f k k B B j B s V J J J Z z l d ; @ 2 2 - - 2 - % % % % @ @   O + + # & & t t 9 9 w < & w w w ",
"R R R R T L F F S Z L L J G H H } c c x l j j j B Z V V J R R -.R d ; 2 2 % % % % % % @ @ @ @ O O + & & 9 9 & 9 & & w t p d d d ",
"%.%.( ( ( T I I F F L J K H | X.1. .} x k k j j V S Z L *.*.R L L d ; ; 2 - % % @ % % @ @ # # O + & & & & # $ $ w t t p p p p p ",
"P ( ( R T I I I F F Z J K | X.<.4.$. .c k l j j j L ( *.-.P d u u 2 ; - - - % % @ % @ @ @ O # + & & & & & & & & t t t t 2 2 2 < ",
"P P P T U I F D F S Z J H ..:.j.3.4.#.[ x l Z C S _ r.( V ; % u % 2 2 - % . .   @ @ & # O O O $ 0 & & & & w t d & & < 2 2 s s d ",
"J L L L F D C C C B j k G ..<.j.4.3.2. .x z Z _ V.] T L V 2 % 2 2 - % - % % 2 j k 2 @ # + O + & 0 9 9 9 t t 2 2 d d d d d d s s ",
"V V V V C B M M C B j d d H :.4.j.3.#. .o.*._ 6.T Z V V V 2 @ - 2 % % 2 j B j d d & # # $ + + 0 9 9 9 9 2 t t p p d d d d d j s ",
"d d s j h h M M h h j d d G O.>.2.<. .} %.r._ T j B j V Z 4 % - 2 - 1 s j j 4 2 u & # # $ + $ 0 9 & q t t p d d d d d s s s s s ",
"s s 7 7 h h M M 8 h j j d d H .. .X.| K P L Z B B V V Z Z s - - - 4 j j 4 - - 2 2 @ # + $ 0 0 e & ; t d V V d d d d s s s s s s ",
"h h 7 h 7 h M M M B j s u s V K ..O.K k l B j B B V V V V 7 - = 1 7 j 7 1 - 4 j & @ + + 0 0 e y t t d k V V d d d d s s 7 s s s ",
"h h h h M M M B h 7 7 4 s V Y *.%.P d 2 s B B V B V V d B 7 1 3 j 7 5 - - 2 4 2 @ @ $ $ 0 e e y d d d d d d d d s s s s s s s s ",
"h h M M C B B B 7 7 j B F T _ _ Y J 4 - 7 j B B n V d s B h 3 7 j 5 % . - 5 - . @ @ # & 0 e e a V k d d d d d d s s s s s s 7 7 ",
"N N C C C C C C B C F ) _ ) U l z Z j 7 j j 7 s s m d s j h 3 3 1 - X X - 4 2 % @ # & & 0 e r a d k k k d d s s 7 7 s s s s 7 7 "
};
