/* XPM */
static char *_7e8332b36ae4928e3d60044c33244a4BRnhl6vpwbWFyEwI[] = {
/* columns rows colors chars-per-pixel */
"64 61 219 2 ",
"   c #0B0B06",
".  c #0C0D0A",
"X  c #0D0605",
"o  c #140D05",
"O  c #120D0D",
"+  c #1A0E0C",
"@  c #0E100C",
"#  c #191007",
"$  c #13110E",
"%  c #1B140C",
"&  c #18140B",
"*  c #140E12",
"=  c #190F13",
"-  c #1E0F19",
";  c #0E1212",
":  c #131414",
">  c #1B1414",
",  c #161915",
"<  c #1A1A16",
"1  c #151619",
"2  c #1D1519",
"3  c #161A1A",
"4  c #1B1C1B",
"5  c #21130C",
"6  c #24190E",
"7  c #220F19",
"8  c #221615",
"9  c #231A14",
"0  c #2B1A13",
"q  c #23131B",
"w  c #231C1C",
"e  c #2A1617",
"r  c #1E211E",
"t  c #22221E",
"y  c #2B241C",
"u  c #252A1E",
"i  c #2C291E",
"p  c #2A2116",
"a  c #34251B",
"s  c #34291E",
"d  c #3B2A1D",
"f  c #3A2516",
"g  c #1C1E21",
"h  c #151C22",
"j  c #251C23",
"k  c #2B1E27",
"l  c #2A1B25",
"z  c #1E2223",
"x  c #1E242A",
"c  c #232423",
"v  c #2A2623",
"b  c #262925",
"n  c #2C2A25",
"m  c #22262B",
"M  c #2B2629",
"N  c #24292E",
"B  c #2C2C2B",
"V  c #312721",
"C  c #342D24",
"Z  c #3A2D23",
"A  c #32242D",
"S  c #312E2B",
"D  c #382E2C",
"F  c #2E312C",
"G  c #333226",
"H  c #3C3125",
"J  c #34322C",
"K  c #3C342B",
"L  c #3D382D",
"P  c #242B33",
"I  c #2A2D32",
"U  c #2C2F3B",
"Y  c #262C36",
"T  c #332D33",
"R  c #352831",
"E  c #2D3134",
"W  c #273039",
"Q  c #2C333B",
"!  c #2C363B",
"~  c #333333",
"^  c #3A3432",
"/  c #363836",
"(  c #3C3A34",
")  c #32343A",
"_  c #3B3639",
"`  c #353A3B",
"'  c #3B3C3B",
"]  c #422B1C",
"[  c #492E1B",
"{  c #49371F",
"}  c #4A2E20",
"|  c #423425",
" . c #4A3A24",
".. c #42352B",
"X. c #4B362A",
"o. c #44392D",
"O. c #4A3B2D",
"+. c #473624",
"@. c #543C2C",
"#. c #573A28",
"$. c #413731",
"%. c #443C33",
"&. c #4B3D32",
"*. c #443C3A",
"=. c #493E3B",
"-. c #433739",
";. c #533E31",
":. c #3D413D",
">. c #4D412D",
",. c #5C412C",
"<. c #464137",
"1. c #4C4135",
"2. c #44423C",
"3. c #4B443B",
"4. c #4C493E",
"5. c #534336",
"6. c #5D4332",
"7. c #53453A",
"8. c #55493D",
"9. c #594A3D",
"0. c #58463B",
"q. c #64452F",
"w. c #694C35",
"e. c #634937",
"r. c #6D523C",
"t. c #2B3541",
"y. c #2E3B4B",
"u. c #2F3A40",
"i. c #333A44",
"p. c #3B3E42",
"a. c #333E4C",
"s. c #383943",
"d. c #2F3A50",
"f. c #333E52",
"g. c #423F44",
"h. c #3D4244",
"j. c #36414C",
"k. c #3D454E",
"l. c #3B434C",
"z. c #3E4A4E",
"x. c #374246",
"c. c #324152",
"v. c #344151",
"b. c #364250",
"n. c #354251",
"m. c #364552",
"M. c #344154",
"N. c #354554",
"B. c #354655",
"V. c #364655",
"C. c #394551",
"Z. c #3D4750",
"A. c #3D4651",
"S. c #394555",
"D. c #3B4754",
"F. c #3F4851",
"G. c #3D4955",
"H. c #3D4A54",
"J. c #394858",
"K. c #444444",
"L. c #4C4542",
"P. c #454847",
"I. c #4C4A46",
"U. c #414649",
"Y. c #40474E",
"T. c #41454C",
"R. c #42484E",
"E. c #454A4D",
"W. c #444A4D",
"Q. c #4B4D4C",
"!. c #514642",
"~. c #544C43",
"^. c #594C41",
"/. c #514F4A",
"(. c #4E504D",
"). c #53524D",
"_. c #5D544B",
"`. c #5B5045",
"'. c #444752",
"]. c #424950",
"[. c #434B52",
"{. c #494D51",
"}. c #424F58",
"|. c #455154",
" X c #4B5254",
".X c #4A5459",
"XX c #4D595B",
"oX c #475558",
"OX c #515453",
"+X c #595753",
"@X c #525659",
"#X c #535B5C",
"$X c #585B59",
"%X c #63554B",
"&X c #63594D",
"*X c #69574B",
"=X c #775C48",
"-X c #645D51",
";X c #685E54",
":X c #6D6155",
">X c #6B6359",
",X c #72675B",
"<X c #555F60",
"1X c #5C6565",
"2X c #566364",
"3X c #626C6D",
"4X c #626665",
"5X c #627070",
"6X c #81624E",
"7X c #886A57",
"8X c #90725D",
"9X c #987B6A",
"0X c #8A7D72",
"qX c #837265",
"wX c #95887C",
"eX c #8B8175",
"rX c #9D9087",
"tX c #A58F82",
"yX c #BBA496",
/* pixels */
"h z x x z z x m x W i.i.y.y.y.y.d.f.f.f.f.f.f.f.f.f.a.a.a.a.a.a.y.y.a.a.i.a.a.a.j.j.j.j.a.a.a.a.a.a.a.a.a.a.a.a.x.x.a.a.a.x.x.x.",
"z x x x z z x m x Y u.a.a.y.y.a.f.f.f.f.f.f.f.f.f.f.a.a.a.a.a.a.a.a.a.a.a.a.j.j.j.j.j.j.a.a.a.a.a.a.a.a.a.x.x.x.x.x.a.a.a.a.a.x.",
"x x x x m m m m x P Q i.f.a.c.f.f.f.f.f.f.f.f.f.f.f.f.f.f.f.a.a.b.j.j.j.b.b.j.j.j.j.x.x.j.j.j.j.x.x.x.x.x.j.j.j.a.x.x.x.a.a.a.x.",
"x x x x m N m m x P W t.y.f.c.c.f.f.f.M.M.M.f.f.f.f.f.f.f.f.f.a.b.b.b.b.b.b.b.b.l.j.l.l.l.l.l.l.j.j.j.j.l.j.l.l.x.x.l.l.j.x.x.x.",
"x x x x m N N m m P P W y.a.c.c.f.f.c.c.c.M.c.c.b.b.b.b.c.c.c.c.b.b.b.b.j.j.l.l.k.k.l.l.k.k.k.k.j.j.l.l.l.l.k.k.l.j.j.j.l.l.l.l.",
"x x x x m m m N P Y W t.y.c.V.V.f.f.c.M.M.b.b.c.b.b.b.b.c.c.b.b.b.b.b.j.j.j.l.l.k.k.k.k.k.k.k.k.k.l.k.x.k.k.k.k.k.j.a.a.l.k.k.x.",
"x N P N m m m N P W t.i.b.b.V.V.c.c.c.V.V.V.c.c.c.c.b.b.b.b.b.b.b.b.j.j.l.l.k.k.Z.Z.Z.k.k.k.k.k.l.l.k.l.k.l.k.l.k.p.) ` j.R.k.j.",
"N P Y P m x m N P W i.j.S.b.c.c.c.N.N.V.V.V.V.V.m.m.m.m.m.m.m.j.b.b.D.j.k.k.k.k.Z.Z.Z.k.k.k.k.l.l.l.l.l.l.l.l.l.l.i.W ! h.R.k.h.",
"x m N N m x m m P W i.j.S.V.V.V.N.V.V.V.V.V.V.m.D.a.m.m.D.G.j.G.D.k.Z.Z.Z.Z.H.H.k.k.k.Y.].].].Y.Y.W.U.h.U.W.W.U.p.E I E p.{.{.h.",
"x m N m m x m N P W i.j.S.S.V.V.V.V.V.V.V.m.m.D.D.j.D.D.D.G.j.Z.k.Z.Z.Z.Z.H.H.H.k.k.Y.].].].R.R.U.U.U.U.U.W.W.U.` E I E / U.W.h.",
"x x N m m x m N m W i.j.S.S.V.V.V.m.m.m.D.S.S.D.G.j.D.D.Z.[.k.[.Z.k.k.Z.H.z.z.].Y.].R.].].].[.W.E.E.E.P.E.W.W.U./ E I I E h.W.U.",
"x x N m m x m N m W i.j.S.S.V.V.V.V.V.V.S.D.S.S.D.i.j.a.l.[.k.].Z.Z.Z.H.z.].].].].R.].[.{.{.{.W.W.Q.W.E.E.Q.E.U./ E E E / U.Q.U.",
"x x N m m m m N m W i.b.S.S.V.D.S.D.D.D.D.D.G.D.i.Q t.Q i.'.l.Y.Z.k.z.z.].].R.R.].].[.{.{.{.{.W.E.Q.Q.P.Q.Q.Q.P.' ~ ~ ~ ' P.Q.' ",
"x x N m m m m N m W i.b.S.J.J.D.D.D.D.D.D.G.G.G.i.U Q U i.'.T.'.Y.z.z.].].].R.].].[.{.{.{.{.{.{.Q.Q.Q.Q.Q.(.Q.Q.' / ~ ~ ' E.E./ ",
"x x x m m m m P m W i.j.J.S.J.J.D.G.G.G.G.G.[.[.i.Q ) U i.{.'.'.Y.].].].R.[.].].R.W.{.{.{.{.{.{.Q.Q.Q.Q.Q.OXOXQ.' / / ~ / K.P./ ",
"x x m m m m m P m W i.C.D.D.J.D.G.G.G.H.G.[.[.[.i.U U Y s.'.T.Y.].].].].R.[.].].R.W.W.{.{.{.{.Q.Q.Q.Q.Q.Q.OXOX).' ' ' ~ E ' U./ ",
"g z m m z z x N N x Y x.k.H.}.}.H.H.H.H.H.H.[.[.Y.P ) U p.l.].[.].[.].k.{.{.U.U.W.W.{.Q.Q.Q.Q.Q.P.P.(.Q.I.).+X/.K.K.K.' ' P.U./ ",
"g c m m m m m m N z P ! x.z.H.H.H.H.H.H.H.H.H.[.Y.U s.) p.l.].z.[.|.].k.[. X#X3X{.W.U.W.{.OX{.P. XQ.(.(.I.).).I.*.' ' ^ / K.K.E ",
"c c c c m m m m N x P Q i.].|.z.[.H.H.H.H.H.H.].l.) p.) p.Y.[.z.x.W.z.[..XXX#X1X X XW.W.Q. X{.P.Q.K.P.(./.).)./.( ^ ^ ~ ~ ' p.B ",
"m c c c m m m x N N Y W u.]..X[.[.[.H.H.H.[.[.k.) U g.) s.R.|.z.|.|.z.[..XR.` ! |.|.{.W.W.Q. X@Xh./ ' Q.+X+X+X).( ^ ^ ~ ^ g.*.B ",
"N m c c m N m x x x Y W E x.|.|.[.|.[.H.|.|.[.l.U U g.T ` h.|.z.z.H.z.z.|.z.x.l. X|.W.W.{. X X@X' E ' Q.+X+X_./.( L ^ ^ ^ ' ' B ",
"N m c c m N N m x N E Q E p.[..X[.oX|.|.|.oX[.l.U I K.T ) p.{.{.z.oX2X2X#X[.W.#X1X#X X X X@X XU./ E / K.I.I.3.%.L J J J J ^ ^ B ",
"N m m m m m N m P N E ! ! p.R. X{..X.X|. X.X{.h.) T K.~ ) '  X#X3X5X3X2X.X` I / #X@X XQ.W.U.h.' / E ~ ( ( *.-.D J C K J C K ^ J ",
"N N m m m m N N I m N Q E ! h.R. X.X.X|..XXX{.h.) T g._ / p.@X1X3X<Xl.` / N z m ) p.K.p.) I / h./ ~ / / ~ *.=.L J C L L K L ( ^ ",
"I N N N N N N N m N N I ` p.` h.#X X#XXX X#X@Xh.S _ *._ ~ P.$X1X@XW.h.c b g M 2 j M T T ~ ~ T T ~ F ~ J J ( =.$.C C C H H L %.3.",
"I N N N N N B B N I N I ` ` p.h.@X{. X X X#X$XK.~ _ *.*._ _  X4XQ.U.' j j 2 j q q l k A T T T T B B B B B L %.%.C V C H K K $.3.",
"I N N N N I I I I E B B / / ` h.Q.U.U.W. X$XOX*.~ ^ -.=.^ B ' $XP.K.' c w > q q q q q k A R R T T I ~ / J ^ %.$.o.H Z K ..H H K ",
"I N N N N I I I I E B B / / / ' p.' ' h.P.(.Q.2.^ ^ -.*.~ v ~ I.I.P.*.M q > q q q 7 q l A R R A T E / ' ^ ^ $.K %.H Z H ..H C H ",
"N N N N I I I I B E E ~ / / / / / ' / / ' :.2.K.^ -.=.-.^ J / ' K.K.' S w q q q e q q q l k k j m c B S n C L H ..d a Z | | | o.",
"N N m N N I I E B / ) / ' / / / ~ ' / / ' ' ' K.^ -.=.^ ^ ( ( J / ' / J w w q w q q 7 - 2 2 2 2 4 1 4 4 w y K %.H H d d H ..o.| ",
"N m m m N I I E B ) E ~ / / ~ ~ J ' / / :.' / *.^ -.-.^ ^ -.( J ~ / F ~ w w > q q - - = * * * : 1 : : < > 9 V H | o.| Z H O.O.H ",
"m m m m N I I I B F B B ~ ~ B ~ S ( / / K.:./ ( ^ -.=.-.-.*.*.' / ( F / t w * = > > > * * * * : : ; : < $ $ 8 9 Z O.O.H | 1.1.| ",
"N m m N N N B ~ ~ B ~ S S / / ' J ( ( ' 2.2.' *.*.=.$.=.3.3.L.=.-.*._ ^ w * 4 : : : * * ; : : : ; ; : 4 < $ 9 V 1...H H O.1.>. .",
"N N N I E ~ ~ / B B J B S S S J J / J J ( / J L S -.=.!.!.3.~.~.!.L.^ A w : :   : : : ; ; @ : : ; @ : 4 < > w K %.H Z H O.>.O.+.",
"m b b B B B B B c B S S S J ^ J ( ' ( ( 2.<.( ( %.K C ~.&X3.3.!.L.!.D w > > w : : : : : ; @ $ $ : ; : < > > y K ..O.O.O. .+.+. .",
"B n n B B n B S n ^ ^ K J K -.( ^ J J ( 3.<.^ L 3.%.L ~.&X~.~.3.$.!.^ w + O : . * : . ; . . . O : @ : > > 9 V %...O.;.@. . . .{ ",
"v v v B S V V S ( 3.-.%.^ K =.%.%.( L ( 3.3.$.%.V 3.3.H Z ..3.H Z &.C 9 % $ $   . . . O O O O O O O + > 9 p ..0.5.;.@.6.r.=Xr.,.",
"v i V D K K K L V L C $.L V $.$.3.<.L L %.%.%.3.;X&X^._.^.&.&.1.:X;XC # % > > O O . O * : * + + > : $ > 5 0 Z ;.@.6.e.e.w.r.w.q.",
"L K $.%.3.%.%.3.=.~.~.,X>X8.&X&X-X_.~.`._.`._.;XrX,X%X0XwX:X*X:XwXqXH o # o X X O O : : > > > > < < > % 5 0 d X.} #.6.,.q.w.w.q.",
"H H H ....K H K H %.%.;X&XK o.K L L L %.3.%.%.3.7.o...`.;X^.0.5.9.5.9 o 9 # o $ O O : > < 2 2 2 < 8 8 e 0 a X.6.r.q.#.w.7X9X8X=X",
"Z a a s H H Z s a ....Z ..%...Z K K K o.o.%.o.o.O...| 5.0.5.&.&.5.5.a 6 # # t < . + > > 2 2 > > > 8 e 0 0 a qX9X@.r.7Xr.r.8X6X=X",
"6 s a H O.&.8.&.O.O.H Z ....Z H H H H K o.%.&.&.&...Z | O.O.O.O.o.O.p % o % S S 4 > > > > > > < 8 8 + + 0 X.tXyX=X6.,.[ [ #.] X.",
"a 5.O.0.9.0.:X^.9.5.....&.o.H K L K H H K K H H ....O.1.0.9.5.| Z H p # o % n S c 4 > > < > > 8 O 8 e e 0 a %Xe.e.f f ] +.X.] 5.",
"Z &.O.&.&.O.7.&.1.5.&.%.1.&...H o.L H K H C V s V ..5.9.%X*X9.o.s i 9 & o $ 4 4 w : : 2 w > = > = e e 8 5 a 0.X.f f ] d d | Z ..",
"| d | | | | Z o.H &.&.H L $.L C C C C C H K H H V H H H %.8.8.&.Z i 9 & > 4 < : 4 1 : > 2 > + = > < > + 5 &.:X*Xs Z ..a p V V D ",
"9.Z &.O.&.0.H 8.H 7.1.Z C ....K V n C J K K K K H H Z a Z o.&.&.3.S t & < c < : c g 1 : + + + = * + + % % %.^.1.o.K H $.%.*.*.g.",
"5.| &.O.&.5...&...5.1.H ..%.$.L J J J L L K D C H ....H H ..o.%.3.n 4 $ > c : : 4 g 4 . X O + + > + O + o L 3.1.1.o.L *.K.' _ ) ",
"H ....o.%.&.&...H %.%.%.1.&.L K L K L L ( K J C H L L K C Z K $.S : $   : c : ; . 1 < .   . O X O X o w % o.o.K L ( K J S S / ) ",
"B S J L ( ..K ..H 8.%X^.&.Z a V $.C L 1.$.3.~.%.K L H K K ,XH & < : $ . . : , < . . . . . . . . X > % o y 3.8.K C i i i v v n B ",
"b B B S J C C C o.&X:X9.o.Z Z H %.L ~.>X:X>X>X~.<.%.3.3.3.-Xs % $ @ .     . $ $     . . . . . . X X X & G 4.4.%.G C n n n n v v ",
"b n n n n V s s ,XeX0X&X1.o.H C L G %.4.3.4.4.L %.J <.<.%.( < % $ . .   . . . .                 & X o y %.4.4.<.G C n n n n n M ",
"B B B B C C C C _.;X_.1.%.%.K C ( G S C n C J n L i L n D p % < : : $ @ $ $ $ @ @ @ @ @ @ @ @ @ : X   t G J G G C n n n B B S B ",
"B B B B S J J K C G C C J J G G J G J / ^ / ^ G ^ n ^ u G u v t t 4 < , , , , , : : : : : : : : : : : < t v n v G F B B J ~ ~ ~ ",
"n n n n n n C C C G G G G u u G B B B F J J S B J B / n J n B t c t 4 4 4 4 4 4 4 4 4 4 4 < 4 4 < t u r u B J J B B B B B B N B ",
"c c c c c v v v t i n u n u u F B F n c n b b B b b n b B u c 4 c c c t t t r r r r r r r r r r , 4 4 4 4 c b c c c c c c c c z ",
"c c c c c c c u u n u , u n u r r b b c B b c b b c r b b 4 c c c c c c c c r 4 r r r r r r r r c c r t c c r 4 4 g g g c c c z ",
"t t t t t t t t r r r r u u u c c c c z z z z z z z z z z z z z t t t t c c c t c t r t c b c c z z z z z z z z z z z c c m m m ",
"w w 4 4 4 4 4 4 4 4 r r r r r r z z z z z z z z z z z z z z z z r r r r t t c t c r r r c c c r r z z z z z z z g z z z z z z z ",
"< < < < < 3 3 3 , 3 3 3 3 , , 3 4 4 4 4 4 4 4 4 g g z z z z g g 4 r r r r r z z z 4 4 4 4 4 4 4 4 4 4 4 g g g g h h 4 4 4 h 4 4 ",
"> > : : : : : : : : : : : , , , : 1 1 1 1 3 3 3 3 3 3 3 3 3 3 3 4 4 4 4 4 4 4 4 4 4 4 4 < < < 3 < < < < < 4 4 4 1 1 1 1 1 1 1 1 ",
"$ $ : : : : : : ; ; 1 : : : : : : : : : : 1 3 3 : 1 1 1 3 3 1 1 , 3 3 < < < < 4 4 4 < < 3 , : : : : : : : 1 1 1 1 1 1 1 1 1 : : "
};
