/* XPM */
static char *_1472d1cdeca4c1acf09c563b97d2249VlqjBLuR2j7sJl55[] = {
/* columns rows colors chars-per-pixel */
"64 64 256 2 ",
"   c #06030C",
".  c #0C0B14",
"X  c #0B021C",
"o  c #0C0B1B",
"O  c #070214",
"+  c #130214",
"@  c #14051B",
"#  c #1B031B",
"$  c #150A1C",
"%  c #1C0A1D",
"&  c #170616",
"*  c #0D121A",
"=  c #12141C",
"-  c #131718",
";  c #10110F",
":  c #23031C",
">  c #25051E",
",  c #37001A",
"<  c #0E0C24",
"1  c #0A0528",
"2  c #140522",
"3  c #1C0424",
"4  c #140C24",
"5  c #1B0B25",
"6  c #150C2B",
"7  c #1C0C2B",
"8  c #17052C",
"9  c #0E1324",
"0  c #141323",
"q  c #15122B",
"w  c #1B122C",
"e  c #181928",
"r  c #090636",
"t  c #1B0C33",
"y  c #180737",
"u  c #1C1433",
"i  c #1A1737",
"p  c #0F143A",
"a  c #240423",
"s  c #230A24",
"d  c #2B0B25",
"f  c #23032C",
"g  c #230C2C",
"h  c #2D0C2B",
"j  c #2A0427",
"k  c #330C2D",
"l  c #36082A",
"z  c #23112E",
"x  c #2C112C",
"c  c #231C2A",
"v  c #33122C",
"b  c #38142F",
"n  c #240234",
"m  c #230C33",
"M  c #2A0B33",
"N  c #280738",
"B  c #340C34",
"V  c #3B0C33",
"C  c #340C3B",
"Z  c #3C0C3B",
"A  c #360338",
"S  c #231334",
"D  c #25133B",
"F  c #291637",
"G  c #351433",
"H  c #3B1433",
"J  c #3A1A35",
"K  c #3C1B3B",
"L  c #37153A",
"P  c #1A2539",
"I  c #1C2127",
"U  c #272338",
"Y  c #2E2434",
"T  c #460A39",
"R  c #4B143C",
"E  c #451A3C",
"W  c #461739",
"Q  c #500933",
"!  c #41213D",
"~  c #690D3C",
"^  c #090746",
"/  c #190946",
"(  c #1B1846",
")  c #171758",
"_  c #0F1250",
"`  c #250946",
"'  c #360848",
"]  c #231C44",
"[  c #281746",
"{  c #3C1D4B",
"}  c #371745",
"|  c #350C56",
" . c #271959",
".. c #391855",
"X. c #270B52",
"o. c #1C2A46",
"O. c #1C2557",
"+. c #1D314A",
"@. c #262549",
"#. c #372647",
"$. c #272859",
"%. c #352757",
"&. c #263256",
"*. c #333351",
"=. c #1A1967",
"-. c #1C1A73",
";. c #0C136B",
":. c #281B68",
">. c #381867",
",. c #261C79",
"<. c #361974",
"1. c #1B2372",
"2. c #272865",
"3. c #372867",
"4. c #272578",
"5. c #362677",
"6. c #32326A",
"7. c #460A45",
"8. c #451746",
"9. c #551A48",
"0. c #490A56",
"q. c #441858",
"w. c #581758",
"e. c #56074B",
"r. c #6C1852",
"t. c #492649",
"y. c #56234A",
"u. c #482658",
"i. c #5A2454",
"p. c #4B3554",
"a. c #662859",
"s. c #6E2B56",
"d. c #471A66",
"f. c #53156A",
"g. c #492767",
"h. c #542867",
"j. c #483666",
"k. c #4A3576",
"l. c #563B79",
"z. c #522F73",
"x. c #662865",
"c. c #662B77",
"v. c #683678",
"b. c #783575",
"n. c #76316C",
"m. c #6F196C",
"M. c #4E435C",
"N. c #63425B",
"B. c #594876",
"V. c #584D6C",
"C. c #664A71",
"Z. c #71617C",
"A. c #941C66",
"S. c #893767",
"D. c #893976",
"F. c #902E6E",
"G. c #A5397B",
"H. c #AB2D72",
"J. c #8E1C5C",
"K. c #8E4976",
"L. c #A24A7D",
"P. c #CC367E",
"I. c #2A1C87",
"U. c #311D8C",
"Y. c #2A2687",
"T. c #342989",
"R. c #373488",
"E. c #382896",
"W. c #3C3399",
"Q. c #2B2694",
"!. c #3832A7",
"~. c #392CA4",
"^. c #1F2C89",
"/. c #543986",
"(. c #432B9A",
"). c #47359A",
"_. c #4D388B",
"`. c #703588",
"'. c #482BA8",
"]. c #4836A9",
"[. c #4738B6",
"{. c #5738B6",
"}. c #4F2FB3",
"|. c #6A1980",
" X c #5A4687",
".X c #564794",
"XX c #634A8A",
"oX c #695888",
"OX c #644C94",
"+X c #675499",
"@X c #7B4F92",
"#X c #736593",
"$X c #5545B8",
"%X c #4F45B1",
"&X c #6B56A5",
"*X c #735BA7",
"=X c #6D53B2",
"-X c #7863AB",
";X c #7C66B3",
":X c #5737C7",
">X c #4F39C5",
",X c #633BC7",
"<X c #683FD5",
"1X c #6B43D7",
"2X c #744AD7",
"3X c #684AC9",
"4X c #604CCA",
"5X c #873987",
"6X c #98368A",
"7X c #AE3A83",
"8X c #C4398B",
"9X c #864689",
"0X c #9A4685",
"qX c #8F5394",
"wX c #A94686",
"eX c #B7468B",
"rX c #AB4A96",
"tX c #B05295",
"yX c #AC6498",
"uX c #9055A8",
"iX c #A659A8",
"pX c #B056AB",
"aX c #836CB9",
"sX c #8973B9",
"dX c #916DAB",
"fX c #B36EB2",
"gX c #83649F",
"hX c #C84899",
"jX c #C6599B",
"kX c #D24D93",
"lX c #E2529C",
"zX c #D8609B",
"xX c #E3619B",
"cX c #D155A6",
"vX c #E858A5",
"bX c #D875B8",
"nX c #CD6CB0",
"mX c #E567AA",
"MX c #E56AB8",
"NX c #EE71B6",
"BX c #8B73C4",
"VX c #947AC8",
"CX c #9371CE",
"ZX c #AB78D1",
"AX c #966AE2",
"SX c #F074C5",
"DX c #D873C3",
"FX c #9487B5",
"GX c #9983CC",
"HX c #9E87D6",
"JX c #AA95D2",
"KX c #B6A8DA",
"LX c #B59CE5",
"PX c #F18CD1",
"IX c #DFA3E3",
"UX c #D0C4EC",
/* pixels */
"k.k.k.l.l.k.k.k.k.k.k.l.l. X X/././. X XOXk.r y 3 h J v g a # + X 1 2 @ + + + + & @ X X 1 1 1 1 r r ^ _ _ _ _ ) / r 1 1 2 $ +   ",
"g.k.k.l. X X X Xl. XXXOX X XOX X.X.X X XOX/.>.y f G ! t.} L g 5 5 6 4 @ + $ % % + 2 6 6 1 1 r p ( _ ) ) ) ) :.2.2. .( y 1 X @ 5 ",
"k.l. X X X XXXOX XOX+X+X X X+X+X&XOX&X*X&X=XOX/ N L t.u.u.{ K K 5 4 @ + & % 5 # 7 8 1 r p ( ( ( O.O.) ) =.=.4.T.5.5.5. ./ r 1 1 ",
"OXOX+X+XOXOX+X+X+X+X*X*XOX+X&X&X=X=X*X*X=X;XBX| ' 8.u.u.q.u.t.#.% $ $ & 5 5 3 2 y r r /  .$.O.) ) ) =.1.,.4.T.W.W.E.T.T.5.:._ r ",
"+X+X+X+X+X+X*X*X+X*X;X;X;X;X-X*XBXCX;X-X;XBXCX/...u.h.q.q.g.u.L % & $ % z F [ ` / /  .2.2.=.) ) ) =.4.4.T.E.'.].[.].~.W.W.T.4.=.",
"*X*X-X-X-X-X-X;X-X-X;X;XaXBXVXBXBXZXVXCXZXCXZXOX..h.h.u.g.g...f % & & 3 S %.3.g.k.5.:.:.-.=.=.=.=.1.4.T.W.].}.}.>X>X[.[.!.Q.Q.Q.",
";XaXaXaXaXaXaXsXBXBXaXaXaXVXGXVXVXHXHXVXZXCXZX&Xg.u.g.g.g.g.} f : % # 8 [ 3././._.T.,.-.-.-.1.4.-.,.Y.T.'.{.:X:X:X:X>X>X!.!.~.Q.",
"aXsXsXsXBXVXVXGXVXVXHXHXGXGXGXsXLXVXVX*XuXaXLXuXh.u.{ u.g...C a > s g D ..k._.%X,.,.Y.Y.Y.-.-.4.,.I.I.E.}.,X1X<X<X<X:X>X>X!.!.!.",
"XX+X*X*X-XaXBXVXGXBXGXLXJXJXLXJXJXgXh.q.h.c.uXz.n M m } u.{ a a s g N / /.&X$XW.E.Y.Y.Y.,.T.-.Y.(.(.'.'.'.,X1X1X1X1X>X>X>X[.$X!.",
"l.B. X/./. X XXXOXOX+X-XsXGXsXXXu.} C 8.h.c.@Xd.f g 3 m #.F # a 3 m y  .=X=X].{.W.Q.T.T.Y.T.,.Y.].3X{.{.,X,X2X2X,X,X}.}.].~.[.%X",
"j.j.j.j.j.z.z.z.z.l.l.z.z.XXz.y f h V 8.x.v.qXh.3 s 3 2 S g # > 5 y ` _.=X%X].4X~.Q.W.T.T.T.Y.U.}.2X2X2X2X,X2X3X{.}.E.E.E.Q.].$X",
"{ { { %.u.g.g.g.g.z.l.l.l.l.u.M L G W R i.n.9Xh.3 s 5 @ 7 7 % > g 1 3.&XE.E.[.$XQ.I.W.W.(.E.(.(.}.AX2X2X3X}.}.}.{.(.U.I.I.T.).%X",
"L } } { { u.u.u.u.{ } } { } M M v d W R a.b.9Xh.3 z w 4 6 7 5 % 7 y 3..X-.Q.$X[.E.Q.].%X].'.$X{.}.2X2X,X{.'.U.E.).E.T.,.,.Y.W.].",
"K K K { { { u.u.h.h.u.{ L M h G v d W R x.5X9Xd.8 7 w q 6 6 5 % 4 ] 3.5.,.!.$X$X!.~.$X4X$X{.2X1X}.<X2X{.'.E.,.T.5.T.R.4.-.I.T.].",
"b v G H L L } 8.L h.C.C.p.J h G H l W R x.5X9Xh.y 6 q q 6 6 5 5 6 i 2.:.I.!.$X[.!.~.].4X}.}.1X:X}.,X:X}.E.T.T.4.:.4.R.4.-.I.Q.].",
"J J H J L G L } t.t.t.t.t.G j J b l R 9.n.qXuXv.m 6 q u 6 6 7 5 w 1 $.6.=.Y.%XQ.E.T.T.].E.E.[.~.'.:X'.'.T.,.R.4.1.=.4.4.,.,.Y.[.",
"G J ! ! J G J K K v h v v k v H b W W V B t.h.u.f g 7 w 7 7 7 7 S 1 ( 6._ ;.4.;.-.=.,.4.R.Y.1.-.U.{.T.W.,.1.4.4.2._ _ O.:.,.W.].",
"h J G G x x J b v x d v b v v b W W E i.K f M L a 5 5 5 5 5 7 7 t D ( _ O._ ^ =.) _ ) :.=.) 1.;.4.T.,.4.4.1.-.-.=.) r p  .:.;.~.",
"J K h d > s J b d v v v G H H l W y.R y.} 8.} f g g g 7 5 5 7 7 6 6 ( @.) ) ) ^ ^ 3. . . . .:._ k.:.:.:.5.5.,.:.2./ ` y ^ =.I.Q.",
"K h a > a > > v v b G H W E W V > a.x.x.' } { 8 M S z z w w w w S 7 8 [ 3.X.y ....*Xq.` q.| ' z.d.` X.>.| >.4.) _ / { y / X.).(.",
"k : G x G ! d v v G H H W y.i.9.9.a.x.qX9Xv.u.N C F F S z w w w 7 M m n ' c.uXfXIXfX7.e.iXnXrXnXx.0.e.b.' X.3._ ) [ 8 q.qX@X`.(.",
"h d K d v t.v v k v H W R y.a.n.D.x.e.9XfXqXv.n M F S S w 7 7 w 7 3 L C f v.IXIXIXIXPXPXPXPXDXbXtXrXG.fXx.|  .)  ./ n qXnXfX|.f.",
"h d d v v d d d k k V W R 9.a.n.iXpXiXiXfX@XqXh.N m m u 7 7 u u u w 2 D { N h.KXPX0X0XF.r.0XnXbXnXbXjXnXrXw.` 2./ N b.tX6X6Xm.|.",
"v v > N.N.d G H k b V W T R a.n.5XiXfXiXiX`.uXv.n m m 7 w w u u q i t u ] [ %.@XfXe.e.r.S.n.D.rXnXPXnXjXbXD.' `.v.w.wXr.G.tXb.|.",
"J b v N.p.J v b H V V T T 9.9.a.6XuXpXiX`.qXdXfX{ D 7 7 S w 7 w S 6 t ] r @.%.u.yXrXA.F.0X9XrX0XD.D.jXNXmXA.F.fXpXpXH.A.H.F.5Xc.",
"v J h G > d H H W W W T R 9.9.a.m.iXZXuXf.`.gXdX} S 7 7 S w 7 t 7 m m [ p ( %.C.F.hXA.jX0XD.n.7.A 0XPXNXxXkXhXjXcX7XkXkXA.J.w.' ",
"G ! J v : k E J E E R R 8.9.9.a.5XpXZXuXf.q.' } [ S 7 w w 7 7 m f C n N [ ( } fXcXMX8XSXjXF.r.e.iXPXPXNXkXvXvXcXhX8X8XH.A.G.7.' ",
"K G G J k k v b E W R R R 9.9.a.qXiXiXuX`.z.` N D t 7 w w 7 7 m f B l N D D } fXPXvXvXSXPXbXnXDXIXPXNXNXxXxXkXcXhXhXeXG.tXiX| X.",
"8.h G J G j k E W E E E R 9.9.w.b.b.`.@X`.l.{ #.m 7 w w w 7 7 m z g M M t u F qXMXkXlXlXPXPXPXPXSXSXmXmXlXvXcXcXcX7X7XrX9Xq.| >.",
"L h 8.K G j k E W E 8.E R R 9.9.w.c.@Xv.q...m t w w 5 5 5 7 7 7 e 4 x F 7 u 8 n.NXNXlXNXPXPXSXMXSXSXmXzXkXxXmXcXnXrXm.w...r :.R.",
"} h K G H d a j H W 8.E R R R 9.8.x.9X@Xu.{ D D w w 4 4 5 7 7 7 0 o x h g S a K.PXkXP.kXSXbXMXMXMXcXmXxXxXzXlXhXeXrXw.'  .=.Y.^.",
"C.C L L t.G j j k H E E W W W E 8.Z u.z.} m 8 t u w 4 4 7 7 7 7 0 0 g a g M h yXPXH.H.J.bXPXSXSXSXMXmXzXzXkXcXhXrXb.0.d./ ) 1.;.",
"XXdXu.M K x b v a a L 8.} J J G B t.} g g g 7 u u 6 6 8 8 7 7 7 q q 7 S g g L 9.n.r.G.bXPXPXPXbXSXMXmXzXkXhXhXrX5X0...y /  .-.;.",
"1 B.JXZ.#.#.+ v x M 8 n } } J x #.p.#.g g g 4 6 6 t t u D S m 7 w 6 w z g g M K a n.nXnXnXnXL.G.MXmXjXeXeXtXpX6Xf.q...y / ) -.-.",
"z 2 #XUXJXoX#.x # t.u.[ ` y D } } #.F 5 5 z 5 6 D ] @.#.[ D g 5 7 5 7 z g 5 g M 8.T T D.tXwXJ.7XhXhXhXeXeXrX5Xf.f.`.q.y  .R.Y.Y.",
"+ w S #XKXKXKXZ.p.p.B. .3.3.%.[ m m 7 2 5 w w w ] @.#.#.[ S 5 3 7 5 5 w S w m m M 8.7.0XG.A.hXNXhX8X8X7X6X5Xc.0.f.`.0.` 2.R.Y.^.",
"; = O ] FXKXJXUXFX%.oX( 3._. X3.y t 7 7 4 4 w q u u D D t 7 5 5 5 5 4 7 w w u S 3 B T s.7X7XvX7X8X8XhXG.J.w.w.0.0.f.' g.6.4.Y.W.",
"- = e 1 *.FXJXJXJX%.oX$.( 2..X.X/ t t u 4 4 q 6 6 6 6 6 8 6 5 5 g 5 5 4 6 q q w F B A T wXnXcXkXhX7XG.J.Q T 0.f.h.q.'  . .5.R.R.",
"0 o e = O j.KXLXJX3.*.*.i $.R..X[ 6 6 6 4 4 q < q 6 6 6 7 5 5 5 5 7 5 4 4 q q w g M V j n.bXjXeXeXF.~ Q Q r.b.x.u.[ / 1 / 3.5.,.",
"i q - - . 4 oXLXHXk.1 *.6 ( 2..X$.i 6 6 < 4 q X 6 < 8 6 7 7 5 5 4 5 6 6 q q q w g f M 7.A b.rXD.s.Q , T D.nXyXi.[ 1 p r %.:.:._.",
"( i - - - c [ aXGX/ 1 i F i  .6.$.p 6 q q < < q 6 6 6 6 7 5 5 2 4 4 4 4 4 4 5 7 g g f M Z A A 8.9.R > 9.fX9XZ N y r r ) 3.:.:.5.",
"$.@.e ; - c 6 j.GX%.%.t 4 *.@.( $.( p 6 q < < < < < 6 6 4 4 4 4 4 4 4 4 4 5 5 5 5 g g m F N N { K 9.f q.u.y n y y y / :.k.5.<.<.",
"$.@.U o c Y $ u B.oXoX%.t u #.w @.( p 6 6 4 4 4 4 6 6 6 6 4 4 4 4 < 4 4 4 5 5 5 3 g 7 t t y ( %.} N n g.X./  . ...>.>.<.(.).).%X",
"@.@.*.q U c 0 c w oX#XB.j.2 5 U ] ] i 6 < q q 0 e u S u 7 6 5 6 4 4 4 4 4 5 5 5 3 7 7 6 6 p ( %.[ n `.*Xk.k.2.3.d.d.d.<.,.T.).=X",
"o.+.*.@.@.e = I e F oXoXoXj.X S ] @.( 6 4 q w 4 w u S u 7 6 6 7 6 6 4 4 4 4 4 4 4 6 t t y t [ [ } n c.z.<.5. .3.q.d.f.(.T.,.,.R.",
"P o.&.&.*.P 0 - I   M.#X+XXX%.8 ] @.] u 4 q 4 4 4 6 7 t 6 6 7 7 7 7 5 4 4 4 4 4 4 4 6 t y [ } [ ' C | | d.>.d...| q.d._.).,.=.:.",
"P +.+.&.&.@.i = e 0 U V.#XXX+XX.( ( D u w 4 4 4 4 4 6 6 6 6 6 7 7 5 5 5 4 0 9 9 q < 6 t N } q.A M u.z.v.c.0.0.Z C ` X.:.5.<. .) ",
"o.&.+.&.+.&.P e e e o F #X-XOXk.y t i u w q 4 q 4 6 7 7 t t t g m g 5 5 5 4 0 < u < 8 t N { 8.n y.8.q.q.7.x.e.7.Z C y /  .3. ./ ",
"O.O.&.&.&.&.+.P e * P q @.#XdX X[ t 8 u F q o q 4 w 5 8 m } } C A n f z x s 4 6 t 8 ` ....[ f } L C C Z 7.7.7.7.8.8.} n y [  .( ",
"2.2.2.&.&.&.+.o.P P 9 q u j.#XoXB.D 8 u 6 q q X 4 w z F 8.8.8.7.7.' 8.J b H h 7 y ` g.z.` [ G 8.C C } 8.8.7.7.T T 8.8.C n t [ [ ",
"2.2.2.2.&.&.&.+.o.P 9 e 6 u B.#X#Xp.t 6 q u w X @ g h k Z Z 9.b.n.9.y.E 9.s.K f y N q.....} M f C } 8.8.8.T Z Z A Z } } N y t [ ",
"$.2.2.2.&.&.&.+.@.i P i q 6 i B.oXZ.#.1 D U 4 5 z x h W i.a.D.fXrXw.9.R s.K.y.j N ' ' ' #X} B B } } 8.8.Z Z Z Z C B M M D [ D y ",
"$.$.2.2.2.$.$.&.o.P P e i q X #.V.#Xj.t u S 5 5 G k V s.qXyXyXnXtXF.s.Q r.K.i.V A ' 0.v.dXf V E 8.} Z C C V V B B M f 8 m } D 8 ",
"$.$.6.2.2.$.$.$.o.@.9 e U 9 0 < j.B.C.*.2 4 z # h V i.K.yXyXtXeXjXwXS.Q r.L.s.j l A 9.iX@X3 V V Z Z B B G G M h g F m 3 7 F D 8 ",
"@.$.6.2.2.2.$.$.( @.9 e I 0 e o #.*.V.M.S 7 x # B y.K.yXtXeXtXeXeXeXS.r.S.L.y.> A A w.qXu.M Z l k B B B B h g s 5 g g 7 7 t m 8 ",
"@.*.%.6.2.2.$.O.o.p P 9 = I * 0 < #.M.V.p.F 3 j k i.qXyXL.wXeX7XG.wXF.S.L.S.Q V j T n.i.f a B H k k B h g s 5 5 7 5 2 5 7 7 5 3 ",
"D @.@.$.6.6.$.( o.i e 9 - - - * 4 4 M.V.M.V.x j k 9.yXK.wXwXG.7XG.F.S.S.S.r.T V j Z R V f a h B k h a a s s 5 5 5 @ 4 4 2 S F 2 ",
"i F @.@.%.%.$.@.( i e 9 - - - - o 4 U M.V.M.J # a V K.0XwXwXG.F.F.S.S.S.S.9.l a a B V k g 3 a k j d h d s 5 % $ $ @ 4 4 @ 7 z @ ",
"e e u i ] $.@.] ( i e 0 - - - - o 0 o *.V.p.#.# # j a.qXS.0XL.L.D.K.n.a.y.T j a 3 h k a 5 5 3 j s h x x s % $ $ & @ 4 4 2 5 7 X ",
"0 0 q q i ] ( i i e 0 = = - - - = 0   c V.p.#.# # a l K.K.K.K.S.s.s.y.W T l a s 3 s a : 5 4 3 s x x s > # # % $ $ $ 4 5 5 5 4 X ",
"- = 0 q u i i u w 0 0 * * - = = = = . . *.*.Y % # # + y.K.n.y.T l b k h H G 3 @ $ $ # # % $ # s x s # # # % s 5 % $ $ 5 w 7 2 X ",
". - = 0 e i i u 0 * * * * * * * = . =   e Y c $ O % + d p.V > : : > % g J G $ O $ $ # # $ $ # s 3 # + # s s s > > # + $ w 4 X X ",
"; ; = = 0 e e e . . . . . o o o . . . . . c e =   $ @ + s # : d d s % 5 x s @ o o $ + + $ + # s # $ # 3 s d s # # # + $ w 4 O X ",
"; ; . . o 0 q 0 O . . . . o o o . . . - O e e = . O + + s G G d : # $ 5 x # X o . + + + & + # s 3 5 3 s s s : : # # + $ w X O < "
};
